<svg width="1533" height="939" viewBox="0 0 1533 939" fill="none" xmlns="http://www.w3.org/2000/svg">
<g clip-path="url(#clip0)">
<g opacity="0.5">
<path opacity="0.5" d="M1532.95 0H914.669V605.857H1532.95V0Z" fill="url(#paint0_linear)"/>
</g>
<path d="M1512.84 4.6615H900.77V601.195H1512.84V4.6615Z" fill="white"/>
<g opacity="0.5">
<path opacity="0.5" d="M1467.7 54.1942H979.915V432.874H1467.7V54.1942Z" fill="#6C63FF"/>
</g>
<g opacity="0.5">
<path opacity="0.5" d="M1316.2 314.964C1315.94 300.027 1309.83 285.787 1299.2 275.293C1289.62 265.885 1276.74 255.088 1262.79 248.557H1262.7C1256.79 245.679 1250.46 243.766 1243.94 242.889V219.71C1248.7 215.445 1252.64 210.34 1255.55 204.649V206.505C1255.55 206.505 1277.78 184.048 1277.27 157.695C1277.59 141.869 1269.98 124.456 1244.47 109.522C1185.21 74.951 1162.52 125.221 1158.2 136.853C1157.92 137.416 1157.71 138.011 1157.57 138.624L1157.4 139.162C1157.33 139.708 1157.33 140.26 1157.4 140.806V140.806V140.976C1157.38 141.268 1157.38 141.562 1157.4 141.854C1157.4 145.737 1160.7 149.307 1166.3 152.226C1161.9 158.793 1159.06 166.28 1158 174.114C1156.94 181.947 1157.69 189.92 1160.18 197.421C1162.67 204.922 1166.85 211.753 1172.39 217.392C1177.93 223.031 1184.69 227.328 1192.14 229.954V244.831L1191 242.663C1191 242.663 1183.08 247.409 1172.86 254.692C1155.74 266.891 1132.17 286.217 1128.63 302.184C1122.96 327.688 1128.63 435.623 1128.63 435.623L1318.57 438.456L1316.2 314.964ZM1255.83 204.465L1255.9 204.394L1255.83 204.465ZM1157.9 142.662V142.747V142.662ZM1158.25 143.498V143.611V143.498ZM1158.71 144.32L1158.79 144.461L1158.71 144.32ZM1159.26 145.127L1159.37 145.283L1159.26 145.127ZM1159.91 145.921L1160.07 146.091L1159.91 145.921ZM1160.66 146.7L1160.84 146.884L1160.66 146.7ZM1167.09 150.95L1167.29 151.05L1167.09 150.95ZM1161.51 147.423L1161.74 147.621L1161.51 147.423ZM1162.45 148.173L1162.72 148.372L1162.45 148.173ZM1163.48 148.896L1163.79 149.109L1163.48 148.896ZM1164.6 149.604L1164.97 149.817L1164.6 149.604ZM1165.8 150.285L1166.21 150.511L1165.8 150.285Z" fill="url(#paint1_linear)"/>
</g>
<path d="M1243.39 220.418H1192.97V294.377H1243.39V220.418Z" fill="#FDA57D"/>
<path opacity="0.05" d="M1194.64 232.178C1199.91 234.048 1202.17 235.536 1208.08 235.536C1220.5 235.538 1232.48 230.934 1241.7 222.614V222.09H1194.64V232.178Z" fill="black"/>
<path d="M1209.77 233.864C1237.62 233.864 1260.19 211.288 1260.19 183.439C1260.19 155.589 1237.62 133.013 1209.77 133.013C1181.92 133.013 1159.34 155.589 1159.34 183.439C1159.34 211.288 1181.92 233.864 1209.77 233.864Z" fill="#FDA57D"/>
<path d="M1204.21 160.713C1229.11 160.713 1249.28 153.043 1249.28 143.583C1249.28 134.122 1229.11 126.453 1204.21 126.453C1179.32 126.453 1159.15 134.122 1159.15 143.583C1159.15 153.043 1179.32 160.713 1204.21 160.713Z" fill="black"/>
<path d="M1213.23 149.902L1254.68 175.136V206.307C1254.68 206.307 1308.76 151.645 1243.87 113.801C1178.98 75.957 1159.15 142.648 1159.15 142.648C1159.15 142.648 1177.17 157.114 1213.23 149.902Z" fill="black"/>
<path d="M1256.6 191.841C1259.38 191.841 1261.64 188.079 1261.64 183.439C1261.64 178.798 1259.38 175.037 1256.6 175.037C1253.81 175.037 1251.55 178.798 1251.55 183.439C1251.55 188.079 1253.81 191.841 1256.6 191.841Z" fill="#FDA57D"/>
<g opacity="0.05">
<path opacity="0.05" d="M1254.68 175.136L1227.08 158.346C1219.59 159.959 1211.94 160.752 1204.27 160.713C1180.04 160.713 1160.35 153.444 1159.26 144.334V144.49C1159.24 144.773 1159.24 145.057 1159.26 145.34C1159.26 154.804 1179.43 162.469 1204.33 162.469C1212.02 162.514 1219.69 161.721 1227.21 160.103L1254.79 176.893L1254.68 175.136Z" fill="black"/>
<path opacity="0.05" d="M1254.68 206.363V208.162C1254.68 208.162 1276.29 186.315 1275.79 160.67C1275.28 185.521 1254.68 206.363 1254.68 206.363Z" fill="black"/>
</g>
<path d="M1191.83 243.343C1191.83 243.343 1136.66 276.44 1131.15 301.263C1125.64 326.086 1131.15 431.103 1131.15 431.103L1315.96 433.866L1313.61 313.689C1313.34 299.147 1307.39 285.289 1297.03 275.08C1283.23 261.521 1262.36 244.958 1241.48 243.343L1216.65 290.24L1191.83 243.343Z" fill="#4D8AF0"/>
<path opacity="0.05" d="M1166.36 299.521C1166.36 299.521 1151.93 375.223 1164.56 398.7Z" fill="black"/>
<path opacity="0.05" d="M1270.86 299.521C1270.86 299.521 1285.29 375.223 1272.66 398.7Z" fill="black"/>
<path d="M1191.59 243.626L1243.97 242.889L1209.63 330.153L1191.59 243.626Z" fill="white"/>
<path d="M1191.59 238.228V243.626H1243.87L1243.97 238.228H1191.59Z" fill="white"/>
<path d="M1220.44 238.228H1213.23V245.44H1220.44V238.228Z" fill="black"/>
<path d="M1191.59 243.626L1180.78 254.451L1204.21 294.378L1191.59 243.626Z" fill="#4D8AF0"/>
<path d="M1242.06 247.239L1251.08 256.25L1224.04 292.295L1242.06 247.239Z" fill="#4D8AF0"/>
<path opacity="0.1" d="M1191.59 243.626L1180.78 254.451L1204.21 294.378L1191.59 243.626Z" fill="white"/>
<path opacity="0.1" d="M1242.06 247.239L1251.08 256.25L1224.04 292.295L1242.06 247.239Z" fill="white"/>
<path d="M1216.82 241.827L1187.99 363.392L1206.01 390.425L1229.45 363.392L1216.82 241.827Z" fill="black"/>
<path d="M1445.11 486.062H1014.39V505.898H1445.11V486.062Z" fill="#E0E0E0"/>
<path d="M1376.39 525.734H1083.1V545.57H1376.39V525.734Z" fill="#E0E0E0"/>
<g opacity="0.5">
<path opacity="0.5" d="M618.28 162.257H0V768.113H618.28V162.257Z" fill="url(#paint2_linear)"/>
</g>
<path d="M615.178 166.918H3.10291V763.452H615.178V166.918Z" fill="white"/>
<g opacity="0.5">
<path opacity="0.5" d="M553.035 216.451H65.2455V595.131H553.035V216.451Z" fill="#6C63FF"/>
</g>
<g opacity="0.5">
<path opacity="0.5" d="M422.431 524.445H430.308L427.843 499.225H427.574C429.076 483.81 431.329 415.504 357.894 388.286L351.334 383.965L350.838 384.404V365.971C355.685 361.659 359.695 356.491 362.669 350.725V352.61C369.129 345.643 374.481 337.725 378.537 329.133C374.733 336.284 370.008 342.905 364.482 348.827V348.657C373.706 338.13 411.422 289.263 351.32 254.196C283.623 214.708 270.843 280.96 270.843 280.96L276.241 288.186C276.241 288.186 263.136 314.426 263.136 326.809C263.139 337.685 266.513 348.293 272.792 357.174C279.072 366.054 287.949 372.77 298.202 376.399V392.126C293.314 393.911 225.377 420.193 225.377 499.211L215.912 524.43L219.072 525.847V596.137H373.507C373.507 596.137 382.972 521.257 379.812 496.037L389.277 502.342V524.416H391.374V524.969H390.764L391.374 527.009V594.564H422.374V527.037L422.728 524.997H422.374L422.431 524.445ZM247.224 530.225L247.451 524.445L247.224 530.225Z" fill="url(#paint3_linear)"/>
</g>
<path d="M349.676 367.713H299.251V441.673H349.676V367.713Z" fill="#FDA57D"/>
<path opacity="0.05" d="M300.937 379.473C306.208 381.343 308.475 382.831 314.383 382.831C326.803 382.834 338.783 378.23 348.004 369.909V369.385H300.937V379.473Z" fill="black"/>
<path d="M316.069 381.159C343.918 381.159 366.494 358.583 366.494 330.734C366.494 302.884 343.918 280.308 316.069 280.308C288.219 280.308 265.643 302.884 265.643 330.734C265.643 358.583 288.219 381.159 316.069 381.159Z" fill="#FDA57D"/>
<path d="M319.512 306.208L360.968 322.431V353.602C360.968 353.602 415.092 299.011 350.158 261.124C291.812 227.12 281.243 268.081 273.904 275.959C273.733 276.141 273.599 276.356 273.512 276.591C273.424 276.825 273.384 277.075 273.393 277.325C273.402 277.575 273.461 277.821 273.565 278.049C273.67 278.276 273.819 278.481 274.003 278.651C281.214 285.437 287.378 312.641 319.512 306.208Z" fill="#4D4545"/>
<path d="M418.308 520.166H388.597V594.196H418.308V520.166Z" fill="#FDA57D"/>
<path d="M386.585 499.012V520.166H425.86L423.465 495.995L386.585 499.012Z" fill="white"/>
<path d="M223.407 520.166V595.712H247.579L250.384 525.706L223.407 520.166Z" fill="#FDA57D"/>
<path d="M317.075 414.412L299.534 393.259C299.534 393.259 229.485 417.43 229.485 495.994L250.639 520.166L247.621 595.712H371.51C371.51 595.712 380.577 517.148 377.559 492.976L386.627 499.026H422.884C422.884 499.026 436.826 414.412 349.209 387.223L317.075 414.412Z" fill="#235067"/>
<path d="M229.443 495.995L220.389 520.166L250.058 533.767L250.596 520.166L229.443 495.995Z" fill="white"/>
<path opacity="0.05" d="M287.08 401.732L298.953 428.298L315.913 414.356L299.534 395.058L287.08 401.732Z" fill="black"/>
<path d="M287.08 399.932L298.953 426.484L315.913 412.556L299.534 393.259L287.08 399.932Z" fill="white"/>
<path opacity="0.05" d="M350.158 387.322L360.969 394.534L330.336 423.367L319.611 414.058L350.158 387.322Z" fill="black"/>
<path d="M350.158 385.523L360.969 392.721L330.336 421.568L319.611 412.259L350.158 385.523Z" fill="white"/>
<path opacity="0.05" d="M252.821 513.492C252.788 490.085 260.383 467.305 274.456 448.601Z" fill="black"/>
<path opacity="0.05" d="M373.592 495.47V484.645L384.403 491.857L377.191 490.058L373.592 495.47Z" fill="black"/>
<path opacity="0.05" d="M388.016 520.704L388.597 522.645H418.308L418.648 520.704H388.016Z" fill="black"/>
<path opacity="0.05" d="M223.407 521.554V523.623L249.902 535L249.222 533.314L223.407 521.554Z" fill="black"/>
<path opacity="0.05" d="M376.242 332.972C372.599 339.824 368.074 346.169 362.782 351.845V320.632L321.325 304.409C290.254 310.629 285.352 285.636 276.638 277.63C276.265 277.29 275.773 277.111 275.269 277.133C274.764 277.154 274.289 277.374 273.946 277.744V277.744C273.775 277.927 273.642 278.142 273.554 278.376C273.467 278.611 273.426 278.86 273.435 279.11C273.445 279.361 273.503 279.607 273.608 279.834C273.712 280.061 273.861 280.266 274.045 280.436C281.271 287.208 287.42 314.44 319.568 307.979L361.025 324.202V355.373C367.211 348.727 372.343 341.172 376.242 332.972Z" fill="black"/>
<path d="M362.881 339.135C365.667 339.135 367.925 335.374 367.925 330.733C367.925 326.093 365.667 322.332 362.881 322.332C360.095 322.332 357.837 326.093 357.837 330.733C357.837 335.374 360.095 339.135 362.881 339.135Z" fill="#FDA57D"/>
<path d="M514.242 640.498H83.5228V660.334H514.242V640.498Z" fill="#E0E0E0"/>
<path d="M445.526 680.17H152.24V700.006H445.526V680.17Z" fill="#E0E0E0"/>
<g opacity="0.5">
<path opacity="0.5" d="M1078.68 332.93H460.402V938.786H1078.68V332.93Z" fill="url(#paint4_linear)"/>
</g>
<path d="M1075.58 337.591H463.505V934.125H1075.58V337.591Z" fill="white"/>
<g opacity="0.5">
<path opacity="0.5" d="M1013.44 387.138H525.648V765.818H1013.44V387.138Z" fill="#6C63FF"/>
</g>
<g opacity="0.5">
<path opacity="0.5" d="M812.529 623.525L813.946 622.462L815.972 620.96L910.561 550.699L878.044 420.647C878.044 420.647 878.044 420.491 878.044 420.222C878.313 416.255 879.829 385.552 863.238 391.091C847.029 396.49 853.037 419.173 854.199 423.027L854.383 423.594L875.069 532.96L809.327 571.3L800.203 570.28C810.601 556.016 816.121 538.78 815.944 521.129C815.944 480.324 788.16 447.241 753.872 447.241C719.584 447.241 691.8 480.324 691.8 521.129C691.8 551.691 707.385 577.931 729.616 589.138L706.082 600.912V601.039C699.338 599.622 673.749 600.048 684.121 693.956C686.666 716.706 681.254 739.636 668.805 758.847L662.315 767.873L824.332 768.864H824.827C824.827 768.864 801.889 732.097 812.529 623.525Z" fill="url(#paint5_linear)"/>
</g>
<path d="M708.945 601.691C708.945 601.691 675.507 587.253 685.255 686.475C687.902 712.928 681.472 739.494 667.02 761.809L664.966 764.968H696.051L719.458 740.173L708.945 601.691Z" fill="#3AD29F"/>
<path d="M875.919 424.373C875.919 424.373 875.919 424.231 875.919 423.962L852.541 426.711L852.711 427.278L872.986 534.476L803.447 575.04L806.281 627.194L907.684 551.861L875.919 424.373Z" fill="#3AD29F"/>
<path d="M754.241 595.301C787.841 595.301 815.08 562.873 815.08 522.872C815.08 482.871 787.841 450.443 754.241 450.443C720.64 450.443 693.401 482.871 693.401 522.872C693.401 562.873 720.64 595.301 754.241 595.301Z" fill="#FFFF00"/>
<path d="M784.66 547.497H741.205V611.24H784.66V547.497Z" fill="#FDA57D"/>
<path d="M754.24 601.167L742.651 583.782L707.881 601.167V629.929C707.881 629.929 695.257 652.173 705.543 677.79C702.71 715.449 695.031 764.812 695.031 764.812L823.836 765.761C823.836 765.761 800.656 728.598 812.246 618.509L809.412 572.15L783.342 569.316L754.24 601.167Z" fill="#3AD29F"/>
<path opacity="0.05" d="M809.285 572.136L812.189 575.026L815.08 620.719L811.708 623.227L809.285 572.136Z" fill="black"/>
<path opacity="0.05" d="M742.651 557.641C747.185 559.242 749.154 560.475 754.241 560.475C764.944 560.477 775.268 556.509 783.215 549.339V548.885H742.651V557.641Z" fill="black"/>
<path d="M755.686 559.086C779.685 559.086 799.14 539.631 799.14 515.632C799.14 491.633 779.685 472.177 755.686 472.177C731.687 472.177 712.231 491.633 712.231 515.632C712.231 539.631 731.687 559.086 755.686 559.086Z" fill="#FDA57D"/>
<path d="M799.154 522.872C801.557 522.872 803.504 519.63 803.504 515.632C803.504 511.633 801.557 508.392 799.154 508.392C796.752 508.392 794.805 511.633 794.805 515.632C794.805 519.63 796.752 522.872 799.154 522.872Z" fill="#FDA57D"/>
<path opacity="0.05" d="M717.743 502.03V504.07H792.339V506.11H716.722L717.743 502.03Z" fill="black"/>
<path d="M791.914 467.827H716.582V505.487H791.914V467.827Z" fill="#FFFF00"/>
<path d="M861.396 395.398C845.513 400.697 851.393 422.928 852.527 426.711L875.905 423.962C876.216 420.066 877.704 389.972 861.396 395.398Z" fill="#FDA57D"/>
<g opacity="0.05">
<path opacity="0.05" d="M697.595 764.812C697.595 764.812 705.217 715.449 708.108 677.79C697.892 652.286 710.502 629.929 710.502 629.929V601.167L742.934 584.944L742.155 583.782L707.399 601.167V629.929C707.399 629.929 694.789 652.244 705.005 677.79C702.171 715.449 694.492 764.812 694.492 764.812L823.297 765.761L697.595 764.812Z" fill="black"/>
<path opacity="0.05" d="M756.862 601.096L785.553 569.543L782.733 569.231L755.545 599.126L756.862 601.096Z" fill="black"/>
</g>
<path opacity="0.05" d="M731.742 590.81L754 642.071L794.805 572.065L783.527 570.619L755.559 598.574L743.133 584.604L731.742 590.81Z" fill="black"/>
<path d="M731.742 589.251L754 640.527L794.805 570.52L783.527 569.061L755.559 597.03L743.133 583.045L731.742 589.251Z" fill="white"/>
<path d="M986.05 806.268H555.33V826.104H986.05V806.268Z" fill="#E0E0E0"/>
<path d="M917.333 845.94H624.047V865.776H917.333V845.94Z" fill="#E0E0E0"/>
</g>
<defs>
<linearGradient id="paint0_linear" x1="1223.81" y1="605.857" x2="1223.81" y2="0" gradientUnits="userSpaceOnUse">
<stop stop-color="#808080" stop-opacity="0.25"/>
<stop offset="0.54" stop-color="#808080" stop-opacity="0.12"/>
<stop offset="1" stop-color="#808080" stop-opacity="0.1"/>
</linearGradient>
<linearGradient id="paint1_linear" x1="165454" y1="105049" x2="191598" y2="105049" gradientUnits="userSpaceOnUse">
<stop stop-color="#808080" stop-opacity="0.25"/>
<stop offset="0.54" stop-color="#808080" stop-opacity="0.12"/>
<stop offset="1" stop-color="#808080" stop-opacity="0.1"/>
</linearGradient>
<linearGradient id="paint2_linear" x1="134903" y1="328615" x2="134903" y2="69544.9" gradientUnits="userSpaceOnUse">
<stop stop-color="#808080" stop-opacity="0.25"/>
<stop offset="0.54" stop-color="#808080" stop-opacity="0.12"/>
<stop offset="1" stop-color="#808080" stop-opacity="0.1"/>
</linearGradient>
<linearGradient id="paint3_linear" x1="45545.7" y1="147135" x2="77986" y2="147135" gradientUnits="userSpaceOnUse">
<stop stop-color="#808080" stop-opacity="0.25"/>
<stop offset="0.54" stop-color="#808080" stop-opacity="0.12"/>
<stop offset="1" stop-color="#808080" stop-opacity="0.1"/>
</linearGradient>
<linearGradient id="paint4_linear" x1="336273" y1="401767" x2="336273" y2="142697" gradientUnits="userSpaceOnUse">
<stop stop-color="#808080" stop-opacity="0.25"/>
<stop offset="0.54" stop-color="#808080" stop-opacity="0.12"/>
<stop offset="1" stop-color="#808080" stop-opacity="0.1"/>
</linearGradient>
<linearGradient id="paint5_linear" x1="131366" y1="200138" x2="174856" y2="200138" gradientUnits="userSpaceOnUse">
<stop stop-color="#808080" stop-opacity="0.25"/>
<stop offset="0.54" stop-color="#808080" stop-opacity="0.12"/>
<stop offset="1" stop-color="#808080" stop-opacity="0.1"/>
</linearGradient>
<clipPath id="clip0">
<rect width="1532.95" height="938.786" fill="white"/>
</clipPath>
</defs>
</svg>
