<svg width="464" height="573" viewBox="0 0 464 573" fill="none" xmlns="http://www.w3.org/2000/svg">
<path d="M463.561 7.60085H34.0898V538.192H463.561V7.60085Z" fill="url(#paint0_linear)"/>
<path d="M458.073 14.3869H39.5781V531.42H458.073V14.3869Z" fill="white"/>
<path d="M370.944 72.6936H202.174V81.1234H370.944V72.6936Z" fill="#C0BCCF"/>
<path d="M370.944 99.3882H202.174V107.818H370.944V99.3882Z" fill="#C0BCCF"/>
<path d="M330.466 126.083H242.651V134.513H330.466V126.083Z" fill="#007096"/>
<path opacity="0.5" d="M370.944 241.994H202.174V250.424H370.944V241.994Z" fill="#C0BCCF"/>
<path opacity="0.5" d="M370.944 268.688H202.174V277.118H370.944V268.688Z" fill="#C0BCCF"/>
<path opacity="0.5" d="M330.466 295.383H242.651V303.813H330.466V295.383Z" fill="#007096"/>
<path opacity="0.5" d="M370.944 411.294H202.174V419.724H370.944V411.294Z" fill="#C0BCCF"/>
<path opacity="0.5" d="M370.944 437.988H202.174V446.418H370.944V437.988Z" fill="#C0BCCF"/>
<path opacity="0.5" d="M330.466 464.683H242.651V473.113H330.466V464.683Z" fill="#007096"/>
<g opacity="0.5">
<path opacity="0.5" d="M142.754 289.011L139.214 287.382C139.268 286.831 139.291 286.277 139.283 285.724C139.307 285.256 139.307 284.787 139.283 284.319C138.933 280.624 136.634 277.406 135.009 274.027C133.52 270.943 132.575 267.613 132.216 264.192C131.784 259.977 132.216 255.608 130.707 251.646C129.479 248.45 127.05 245.78 124.45 243.42C121.531 240.615 118.121 238.401 114.399 236.894C110.599 235.489 106.228 235.13 102.428 236.563C98.9972 237.856 96.3559 240.434 93.8037 242.942C91.9505 244.614 90.3136 246.521 88.9328 248.618C87.3754 251.231 86.7099 254.238 86.1885 257.203C85.3693 261.949 84.8059 266.738 84.5008 271.547C84.2333 275.559 83.8148 280.111 80.4668 282.57C78.834 283.771 76.5357 284.445 75.7879 286.265C75.576 286.811 75.4914 287.4 75.5409 287.986C75.5203 288.473 75.5549 288.961 75.6438 289.44C75.6918 289.721 75.7467 289.995 75.8153 290.276C74.8545 292.721 74.0479 295.227 73.4004 297.778C72.8996 299.675 72.4399 301.537 72.0283 303.342H73.1397H73.7297L80.1238 303.497H80.213L87.0735 303.658H87.1078L93.5019 303.813H93.6597L95.5052 303.946H96.1089L121.678 304.55H121.816L123.517 304.593H124.114L129.232 304.712L136.779 304.888H136.833L142.514 305.028H143.118H144.284L143.982 298.93C145.231 289.594 142.754 289.011 142.754 289.011ZM114.029 288.267C114.029 293.437 108.623 299.766 108.623 299.766L103.182 292.18L103.381 291.885L108.623 299.19C108.623 299.19 114.029 292.868 114.029 287.691C114.155 287.427 114.299 287.174 114.461 286.932L114.585 287.325C114.377 287.625 114.191 287.939 114.029 288.267ZM122.344 308.555C122.344 308.295 122.344 308.028 122.296 307.768C122.248 307.508 122.255 307.276 122.22 307.023C122.186 306.77 122.159 306.524 122.124 306.272C122.09 306.019 122.042 305.773 121.994 305.52C121.946 305.267 121.898 305.021 121.843 304.768C121.843 304.684 121.809 304.607 121.788 304.515C121.713 304.185 121.63 303.855 121.541 303.525C121.452 303.195 121.397 302.991 121.315 302.731C121.315 302.612 121.246 302.492 121.205 302.38C121.164 302.267 121.088 302 121.027 301.811L120.903 301.445C120.848 301.284 120.793 301.115 120.732 300.954C120.629 300.659 120.519 300.371 120.409 300.076C120.299 299.781 120.183 299.492 120.066 299.204C119.833 298.614 119.579 298.031 119.325 297.441C118.33 295.165 117.212 292.924 116.183 290.704C115.631 289.543 115.141 288.351 114.715 287.136L114.585 287.311C114.377 287.613 114.191 287.93 114.029 288.26C114.029 293.43 108.623 299.759 108.623 299.759L103.182 292.173L98.4209 299.197C97.7349 299.549 97.0488 300.743 96.5137 302.443C96.3627 302.9 96.2187 303.405 96.0815 303.932C95.9854 304.291 95.8962 304.635 95.8139 305.035C95.7659 305.225 95.7247 305.414 95.6836 305.611L95.5601 306.208V306.3C95.4777 306.707 95.3954 307.129 95.3199 307.557C95.2445 307.986 95.1553 308.477 95.0798 308.962C95.0249 309.266 94.9769 309.569 94.9358 309.868C94.8397 310.451 94.7574 311.041 94.6751 311.632C94.627 311.976 94.579 312.334 94.5378 312.65L94.3732 313.957C94.7231 315.032 95.1141 316.064 95.5189 317.146C95.7763 317.714 95.9276 318.326 95.9648 318.951C104.405 321.256 113.287 321.256 121.726 318.951C121.724 318.93 121.724 318.909 121.726 318.888C121.6 318.3 121.545 317.699 121.562 317.097C121.7 315.409 121.929 313.73 122.248 312.067C122.349 311.247 122.393 310.421 122.378 309.594V309.299C122.358 309.032 122.351 308.793 122.344 308.562V308.555ZM122.344 308.555C122.344 308.295 122.344 308.028 122.296 307.768C122.248 307.508 122.255 307.276 122.22 307.023C122.186 306.77 122.159 306.524 122.124 306.272C122.09 306.019 122.042 305.773 121.994 305.52C121.946 305.267 121.898 305.021 121.843 304.768C121.843 304.684 121.809 304.607 121.788 304.515C121.713 304.185 121.63 303.855 121.541 303.525C121.452 303.195 121.397 302.991 121.315 302.731C121.315 302.612 121.246 302.492 121.205 302.38C121.164 302.267 121.088 302 121.027 301.811L120.903 301.445C120.848 301.284 120.793 301.115 120.732 300.954C120.629 300.659 120.519 300.371 120.409 300.076C120.299 299.781 120.183 299.492 120.066 299.204C119.833 298.614 119.579 298.031 119.325 297.441C118.33 295.165 117.212 292.924 116.183 290.704C115.631 289.543 115.141 288.351 114.715 287.136L114.585 287.311C114.377 287.613 114.191 287.93 114.029 288.26C114.029 293.43 108.623 299.759 108.623 299.759L103.182 292.173L98.4209 299.197C97.7349 299.549 97.0488 300.743 96.5137 302.443C96.3627 302.9 96.2187 303.405 96.0815 303.932C95.9854 304.291 95.8962 304.635 95.8139 305.035C95.7659 305.225 95.7247 305.414 95.6836 305.611L95.5601 306.208V306.3C95.4777 306.707 95.3954 307.129 95.3199 307.557C95.2445 307.986 95.1553 308.477 95.0798 308.962C95.0249 309.266 94.9769 309.569 94.9358 309.868C94.8397 310.451 94.7574 311.041 94.6751 311.632C94.627 311.976 94.579 312.334 94.5378 312.65L94.3732 313.957C94.7231 315.032 95.1141 316.064 95.5189 317.146C95.7763 317.714 95.9276 318.326 95.9648 318.951C104.405 321.256 113.287 321.256 121.726 318.951C121.724 318.93 121.724 318.909 121.726 318.888C121.6 318.3 121.545 317.699 121.562 317.097C121.7 315.409 121.929 313.73 122.248 312.067C122.349 311.247 122.393 310.421 122.378 309.594V309.299C122.358 309.032 122.351 308.793 122.344 308.562V308.555ZM122.344 308.555C122.344 308.295 122.344 308.028 122.296 307.768C122.248 307.508 122.255 307.276 122.22 307.023C122.186 306.77 122.159 306.524 122.124 306.272C122.09 306.019 122.042 305.773 121.994 305.52C121.946 305.267 121.898 305.021 121.843 304.768C121.843 304.684 121.809 304.607 121.788 304.515C121.713 304.185 121.63 303.855 121.541 303.525C121.452 303.195 121.397 302.991 121.315 302.731C121.315 302.612 121.246 302.492 121.205 302.38C121.164 302.267 121.088 302 121.027 301.811L120.903 301.445C120.848 301.284 120.793 301.115 120.732 300.954C120.629 300.659 120.519 300.371 120.409 300.076C120.299 299.781 120.183 299.492 120.066 299.204C119.833 298.614 119.579 298.031 119.325 297.441C118.33 295.165 117.212 292.924 116.183 290.704C115.631 289.543 115.141 288.351 114.715 287.136L114.585 287.311C114.377 287.613 114.191 287.93 114.029 288.26C114.029 293.43 108.623 299.759 108.623 299.759L103.182 292.173L98.4209 299.197C97.7349 299.549 97.0488 300.743 96.5137 302.443C96.3627 302.9 96.2187 303.405 96.0815 303.932C95.9854 304.291 95.8962 304.635 95.8139 305.035C95.7659 305.225 95.7247 305.414 95.6836 305.611L95.5601 306.208V306.3C95.4777 306.707 95.3954 307.129 95.3199 307.557C95.2445 307.986 95.1553 308.477 95.0798 308.962C95.0249 309.266 94.9769 309.569 94.9358 309.868C94.8397 310.451 94.7574 311.041 94.6751 311.632C94.627 311.976 94.579 312.334 94.5378 312.65L94.3732 313.957C94.7231 315.032 95.1141 316.064 95.5189 317.146C95.7763 317.714 95.9276 318.326 95.9648 318.951C104.405 321.256 113.287 321.256 121.726 318.951C121.724 318.93 121.724 318.909 121.726 318.888C121.6 318.3 121.545 317.699 121.562 317.097C121.7 315.409 121.929 313.73 122.248 312.067C122.349 311.247 122.393 310.421 122.378 309.594V309.299C122.358 309.032 122.351 308.793 122.344 308.562V308.555ZM122.344 308.555C122.344 308.295 122.344 308.028 122.296 307.768C122.248 307.508 122.255 307.276 122.22 307.023C122.186 306.77 122.159 306.524 122.124 306.272C122.09 306.019 122.042 305.773 121.994 305.52C121.946 305.267 121.898 305.021 121.843 304.768C121.843 304.684 121.809 304.607 121.788 304.515C121.713 304.185 121.63 303.855 121.541 303.525C121.452 303.195 121.397 302.991 121.315 302.731C121.315 302.612 121.246 302.492 121.205 302.38C121.164 302.267 121.088 302 121.027 301.811L120.903 301.445C120.848 301.284 120.793 301.115 120.732 300.954C120.629 300.659 120.519 300.371 120.409 300.076C120.299 299.781 120.183 299.492 120.066 299.204C119.833 298.614 119.579 298.031 119.325 297.441C118.33 295.165 117.212 292.924 116.183 290.704C115.631 289.543 115.141 288.351 114.715 287.136L114.585 287.311C114.377 287.613 114.191 287.93 114.029 288.26C114.029 293.43 108.623 299.759 108.623 299.759L103.182 292.173L98.4209 299.197C97.7349 299.549 97.0488 300.743 96.5137 302.443C96.3627 302.9 96.2187 303.405 96.0815 303.932C95.9854 304.291 95.8962 304.635 95.8139 305.035C95.7659 305.225 95.7247 305.414 95.6836 305.611L95.5601 306.208V306.3C95.4777 306.707 95.3954 307.129 95.3199 307.557C95.2445 307.986 95.1553 308.477 95.0798 308.962C95.0249 309.266 94.9769 309.569 94.9358 309.868C94.8397 310.451 94.7574 311.041 94.6751 311.632C94.627 311.976 94.579 312.334 94.5378 312.65L94.3732 313.957C94.7231 315.032 95.1141 316.064 95.5189 317.146C95.7763 317.714 95.9276 318.326 95.9648 318.951C104.405 321.256 113.287 321.256 121.726 318.951C121.724 318.93 121.724 318.909 121.726 318.888C121.6 318.3 121.545 317.699 121.562 317.097C121.7 315.409 121.929 313.73 122.248 312.067C122.349 311.247 122.393 310.421 122.378 309.594V309.299C122.358 309.032 122.351 308.793 122.344 308.562V308.555Z" fill="url(#paint1_linear)"/>
<path opacity="0.5" d="M122.591 259.556H91.0322V281.333H122.591V259.556Z" fill="#493545"/>
<path opacity="0.5" d="M127.832 283.574L114.626 302.626L100.822 301.396C100.822 301.396 82.8135 302.619 94.8195 288.492C100.589 281.698 102.476 276.036 102.88 271.997C103.32 267.628 102.023 265.141 102.023 265.141L117.027 263.3C116.35 265.37 116.264 267.596 116.78 269.714C118.66 277.694 127.832 283.574 127.832 283.574Z" fill="#C77485"/>
<path opacity="0.1" d="M116.773 269.693C114.816 271.21 112.526 272.213 110.102 272.612C107.679 273.011 105.197 272.795 102.874 271.983C103.313 267.614 102.016 265.127 102.016 265.127L117.02 263.286C116.344 265.354 116.259 267.577 116.773 269.693Z" fill="black"/>
<path opacity="0.5" d="M107.724 272.194C116.011 272.194 122.728 265.315 122.728 256.83C122.728 248.345 116.011 241.467 107.724 241.467C99.4372 241.467 92.7197 248.345 92.7197 256.83C92.7197 265.315 99.4372 272.194 107.724 272.194Z" fill="#C77485"/>
<path opacity="0.1" d="M127.284 284.361L126.934 282.956L126.632 281.72L126.186 279.893L126.104 279.556L126.035 279.275C126.035 279.275 126.392 278.172 124.038 278.53L123.599 278.607C123.229 278.685 122.797 278.79 122.303 278.931L121.857 279.071L121.267 279.261C119.399 279.884 117.695 280.936 116.286 282.338C115.654 282.957 115.094 283.65 114.619 284.403C114.571 284.473 114.537 284.537 114.495 284.593C114.333 284.854 114.189 285.126 114.063 285.408C114.063 290.943 108.657 297.701 108.657 297.701L103.381 289.897L103.278 289.742L102.023 287.873L101.577 287.269L101.426 287.058L98.6815 283.286L97.9955 282.345L97.7691 282.029L97.4329 281.572L96.6439 280.497L93.5567 282.345L89.4403 284.803L87.0391 300.785V301.228L87.1146 302.548L87.6154 311.231V311.351L86.7373 314.947L86.8676 315.018C88.9397 316.162 91.0959 317.139 93.3166 317.94L93.8997 318.151C94.5858 318.382 95.2307 318.593 95.903 318.797C95.9279 318.901 95.9463 319.007 95.9579 319.113C95.9579 319.015 95.9579 318.909 95.9579 318.811C104.377 321.274 113.301 321.274 121.72 318.811L121.877 318.762C122.268 318.649 122.666 318.53 123.051 318.397L123.675 318.193C125.368 317.613 127.026 316.933 128.642 316.156L129.218 303.581L129.63 294.512V293.992L127.284 284.361Z" fill="black"/>
<path opacity="0.5" d="M122.344 307.719C122.344 307.438 122.344 307.157 122.296 306.876C122.248 306.595 122.255 306.349 122.22 306.082C122.186 305.815 122.159 305.548 122.124 305.281C122.09 305.014 122.042 304.747 121.994 304.48C121.946 304.213 121.898 303.946 121.843 303.679C121.843 303.588 121.809 303.504 121.788 303.412C121.713 303.061 121.63 302.71 121.541 302.352C121.452 301.993 121.397 301.783 121.315 301.502C121.315 301.375 121.246 301.249 121.205 301.129C121.164 301.01 121.088 300.722 121.027 300.518L120.903 300.125C120.848 299.949 120.793 299.773 120.732 299.598C120.629 299.282 120.519 298.973 120.409 298.657C120.299 298.34 120.183 298.031 120.066 297.722C119.833 297.09 119.579 296.465 119.325 295.84C118.331 293.409 117.212 291.013 116.183 288.639C115.63 287.394 115.14 286.121 114.715 284.824L114.585 285.014C114.376 285.337 114.19 285.675 114.029 286.026C114.029 291.554 108.623 298.319 108.623 298.319L103.182 290.206L98.4213 297.701C97.7353 298.073 97.0492 299.352 96.5141 301.171C96.3632 301.663 96.2191 302.197 96.0819 302.766C95.9858 303.145 95.8967 303.546 95.8143 303.946C95.7663 304.15 95.7251 304.354 95.684 304.564L95.5605 305.204V305.302C95.4781 305.738 95.3958 306.187 95.3204 306.644C95.2449 307.1 95.1557 307.627 95.0802 308.126C95.0254 308.449 94.9773 308.772 94.9362 309.096C94.8401 309.721 94.7578 310.353 94.6755 310.978C94.6274 311.344 94.5794 311.681 94.5382 312.067L94.3736 313.472C94.7235 314.624 95.1145 315.762 95.5193 316.879C95.7779 317.491 95.9289 318.145 95.9653 318.811C104.384 321.274 113.308 321.274 121.726 318.811C121.723 318.788 121.723 318.764 121.726 318.741C121.6 318.11 121.544 317.467 121.562 316.823C121.7 315.021 121.929 313.227 122.248 311.449C122.349 310.572 122.393 309.69 122.378 308.808V308.491C122.358 308.224 122.351 307.972 122.344 307.719ZM122.344 307.719C122.344 307.438 122.344 307.157 122.296 306.876C122.248 306.595 122.255 306.349 122.22 306.082C122.186 305.815 122.159 305.548 122.124 305.281C122.09 305.014 122.042 304.747 121.994 304.48C121.946 304.213 121.898 303.946 121.843 303.679C121.843 303.588 121.809 303.504 121.788 303.412C121.713 303.061 121.63 302.71 121.541 302.352C121.452 301.993 121.397 301.783 121.315 301.502C121.315 301.375 121.246 301.249 121.205 301.129C121.164 301.01 121.088 300.722 121.027 300.518L120.903 300.125C120.848 299.949 120.793 299.773 120.732 299.598C120.629 299.282 120.519 298.973 120.409 298.657C120.299 298.34 120.183 298.031 120.066 297.722C119.833 297.09 119.579 296.465 119.325 295.84C118.331 293.409 117.212 291.013 116.183 288.639C115.63 287.394 115.14 286.121 114.715 284.824L114.585 285.014C114.376 285.337 114.19 285.675 114.029 286.026C114.029 291.554 108.623 298.319 108.623 298.319L103.182 290.206L98.4213 297.701C97.7353 298.073 97.0492 299.352 96.5141 301.171C96.3632 301.663 96.2191 302.197 96.0819 302.766C95.9858 303.145 95.8967 303.546 95.8143 303.946C95.7663 304.15 95.7251 304.354 95.684 304.564L95.5605 305.204V305.302C95.4781 305.738 95.3958 306.187 95.3204 306.644C95.2449 307.1 95.1557 307.627 95.0802 308.126C95.0254 308.449 94.9773 308.772 94.9362 309.096C94.8401 309.721 94.7578 310.353 94.6755 310.978C94.6274 311.344 94.5794 311.681 94.5382 312.067L94.3736 313.472C94.7235 314.624 95.1145 315.762 95.5193 316.879C95.7779 317.491 95.9289 318.145 95.9653 318.811C104.384 321.274 113.308 321.274 121.726 318.811C121.723 318.788 121.723 318.764 121.726 318.741C121.6 318.11 121.544 317.467 121.562 316.823C121.7 315.021 121.929 313.227 122.248 311.449C122.349 310.572 122.393 309.69 122.378 308.808V308.491C122.358 308.224 122.351 307.972 122.344 307.719ZM122.344 307.719C122.344 307.438 122.344 307.157 122.296 306.876C122.248 306.595 122.255 306.349 122.22 306.082C122.186 305.815 122.159 305.548 122.124 305.281C122.09 305.014 122.042 304.747 121.994 304.48C121.946 304.213 121.898 303.946 121.843 303.679C121.843 303.588 121.809 303.504 121.788 303.412C121.713 303.061 121.63 302.71 121.541 302.352C121.452 301.993 121.397 301.783 121.315 301.502C121.315 301.375 121.246 301.249 121.205 301.129C121.164 301.01 121.088 300.722 121.027 300.518L120.903 300.125C120.848 299.949 120.793 299.773 120.732 299.598C120.629 299.282 120.519 298.973 120.409 298.657C120.299 298.34 120.183 298.031 120.066 297.722C119.833 297.09 119.579 296.465 119.325 295.84C118.331 293.409 117.212 291.013 116.183 288.639C115.63 287.394 115.14 286.121 114.715 284.824L114.585 285.014C114.376 285.337 114.19 285.675 114.029 286.026C114.029 291.554 108.623 298.319 108.623 298.319L103.182 290.206L98.4213 297.701C97.7353 298.073 97.0492 299.352 96.5141 301.171C96.3632 301.663 96.2191 302.197 96.0819 302.766C95.9858 303.145 95.8967 303.546 95.8143 303.946C95.7663 304.15 95.7251 304.354 95.684 304.564L95.5605 305.204V305.302C95.4781 305.738 95.3958 306.187 95.3204 306.644C95.2449 307.1 95.1557 307.627 95.0802 308.126C95.0254 308.449 94.9773 308.772 94.9362 309.096C94.8401 309.721 94.7578 310.353 94.6755 310.978C94.6274 311.344 94.5794 311.681 94.5382 312.067L94.3736 313.472C94.7235 314.624 95.1145 315.762 95.5193 316.879C95.7779 317.491 95.9289 318.145 95.9653 318.811C104.384 321.274 113.308 321.274 121.726 318.811C121.723 318.788 121.723 318.764 121.726 318.741C121.6 318.11 121.544 317.467 121.562 316.823C121.7 315.021 121.929 313.227 122.248 311.449C122.349 310.572 122.393 309.69 122.378 308.808V308.491C122.358 308.224 122.351 307.972 122.344 307.719ZM129.616 294.533L127.167 284.522L126.748 282.808L126.632 282.338L126.035 279.893C126.036 279.872 126.036 279.851 126.035 279.83C126.049 279.722 126.032 279.612 125.987 279.514C125.898 279.331 125.671 279.141 125.143 279.092C124.942 279.078 124.74 279.078 124.539 279.092C123.943 279.153 123.353 279.265 122.776 279.429C122.495 279.507 122.193 279.591 121.871 279.696L121.281 279.886H121.226C119.645 280.417 118.179 281.251 116.904 282.345C116.061 283.064 115.322 283.901 114.708 284.832L114.578 285.021C114.369 285.344 114.183 285.682 114.022 286.033C114.022 291.561 108.616 298.326 108.616 298.326L103.176 290.213L102.867 289.756L102.812 289.679L102.023 288.491L101.426 287.677L101.268 287.466L98.4556 283.623L97.5638 282.38V282.338L97.255 281.909L96.665 281.108L94.6069 282.338L89.4614 285.408L87.0877 301.221V301.389L87.1563 302.541L87.664 311.344V311.842L86.8887 315.011C88.9608 316.155 91.117 317.132 93.3376 317.933L93.9208 318.144C94.6069 318.375 95.2517 318.586 95.9241 318.79C95.949 318.894 95.9673 319 95.979 319.106C95.979 319.008 95.979 318.902 95.979 318.804C104.397 321.267 113.322 321.267 121.74 318.804L121.898 318.755C122.289 318.642 122.687 318.523 123.071 318.389L123.695 318.186C125.388 317.606 127.047 316.926 128.663 316.149L129.232 303.588L129.644 294.617L129.616 294.533ZM95.8761 318.79C95.901 318.894 95.9193 319 95.9309 319.106C95.9309 319.008 95.9309 318.902 95.9309 318.804L95.8761 318.79ZM122.344 307.719C122.344 307.438 122.344 307.157 122.296 306.876C122.248 306.595 122.255 306.349 122.22 306.082C122.186 305.815 122.159 305.548 122.124 305.281C122.09 305.014 122.042 304.747 121.994 304.48C121.946 304.213 121.898 303.946 121.843 303.679C121.843 303.588 121.809 303.504 121.788 303.412C121.713 303.061 121.63 302.71 121.541 302.352C121.452 301.993 121.397 301.783 121.315 301.502C121.315 301.375 121.246 301.249 121.205 301.129C121.164 301.01 121.088 300.722 121.027 300.518L120.903 300.125C120.848 299.949 120.793 299.773 120.732 299.598C120.629 299.282 120.519 298.973 120.409 298.657C120.299 298.34 120.183 298.031 120.066 297.722C119.833 297.09 119.579 296.465 119.325 295.84C118.331 293.409 117.212 291.013 116.183 288.639C115.63 287.394 115.14 286.121 114.715 284.824L114.585 285.014C114.376 285.337 114.19 285.675 114.029 286.026C114.029 291.554 108.623 298.319 108.623 298.319L103.182 290.206L98.4213 297.701C97.7353 298.073 97.0492 299.352 96.5141 301.171C96.3632 301.663 96.2191 302.197 96.0819 302.766C95.9858 303.145 95.8967 303.546 95.8143 303.946C95.7663 304.15 95.7251 304.354 95.684 304.564L95.5605 305.204V305.302C95.4781 305.738 95.3958 306.187 95.3204 306.644C95.2449 307.1 95.1557 307.627 95.0802 308.126C95.0254 308.449 94.9773 308.772 94.9362 309.096C94.8401 309.721 94.7578 310.353 94.6755 310.978C94.6274 311.344 94.5794 311.681 94.5382 312.067L94.3736 313.472C94.7235 314.624 95.1145 315.762 95.5193 316.879C95.7779 317.491 95.9289 318.145 95.9653 318.811C104.384 321.274 113.308 321.274 121.726 318.811C121.723 318.788 121.723 318.764 121.726 318.741C121.6 318.11 121.544 317.467 121.562 316.823C121.7 315.021 121.929 313.227 122.248 311.449C122.349 310.572 122.393 309.69 122.378 308.808V308.491C122.358 308.224 122.351 307.972 122.344 307.719ZM122.344 307.719C122.344 307.438 122.344 307.157 122.296 306.876C122.248 306.595 122.255 306.349 122.22 306.082C122.186 305.815 122.159 305.548 122.124 305.281C122.09 305.014 122.042 304.747 121.994 304.48C121.946 304.213 121.898 303.946 121.843 303.679C121.843 303.588 121.809 303.504 121.788 303.412C121.713 303.061 121.63 302.71 121.541 302.352C121.452 301.993 121.397 301.783 121.315 301.502C121.315 301.375 121.246 301.249 121.205 301.129C121.164 301.01 121.088 300.722 121.027 300.518L120.903 300.125C120.848 299.949 120.793 299.773 120.732 299.598C120.629 299.282 120.519 298.973 120.409 298.657C120.299 298.34 120.183 298.031 120.066 297.722C119.833 297.09 119.579 296.465 119.325 295.84C118.331 293.409 117.212 291.013 116.183 288.639C115.63 287.394 115.14 286.121 114.715 284.824L114.585 285.014C114.376 285.337 114.19 285.675 114.029 286.026C114.029 291.554 108.623 298.319 108.623 298.319L103.182 290.206L98.4213 297.701C97.7353 298.073 97.0492 299.352 96.5141 301.171C96.3632 301.663 96.2191 302.197 96.0819 302.766C95.9858 303.145 95.8967 303.546 95.8143 303.946C95.7663 304.15 95.7251 304.354 95.684 304.564L95.5605 305.204V305.302C95.4781 305.738 95.3958 306.187 95.3204 306.644C95.2449 307.1 95.1557 307.627 95.0802 308.126C95.0254 308.449 94.9773 308.772 94.9362 309.096C94.8401 309.721 94.7578 310.353 94.6755 310.978C94.6274 311.344 94.5794 311.681 94.5382 312.067L94.3736 313.472C94.7235 314.624 95.1145 315.762 95.5193 316.879C95.7779 317.491 95.9289 318.145 95.9653 318.811C104.384 321.274 113.308 321.274 121.726 318.811C121.723 318.788 121.723 318.764 121.726 318.741C121.6 318.11 121.544 317.467 121.562 316.823C121.7 315.021 121.929 313.227 122.248 311.449C122.349 310.572 122.393 309.69 122.378 308.808V308.491C122.358 308.224 122.351 307.972 122.344 307.719ZM122.344 307.719C122.344 307.438 122.344 307.157 122.296 306.876C122.248 306.595 122.255 306.349 122.22 306.082C122.186 305.815 122.159 305.548 122.124 305.281C122.09 305.014 122.042 304.747 121.994 304.48C121.946 304.213 121.898 303.946 121.843 303.679C121.843 303.588 121.809 303.504 121.788 303.412C121.713 303.061 121.63 302.71 121.541 302.352C121.452 301.993 121.397 301.783 121.315 301.502C121.315 301.375 121.246 301.249 121.205 301.129C121.164 301.01 121.088 300.722 121.027 300.518L120.903 300.125C120.848 299.949 120.793 299.773 120.732 299.598C120.629 299.282 120.519 298.973 120.409 298.657C120.299 298.34 120.183 298.031 120.066 297.722C119.833 297.09 119.579 296.465 119.325 295.84C118.331 293.409 117.212 291.013 116.183 288.639C115.63 287.394 115.14 286.121 114.715 284.824L114.585 285.014C114.376 285.337 114.19 285.675 114.029 286.026C114.029 291.554 108.623 298.319 108.623 298.319L103.182 290.206L98.4213 297.701C97.7353 298.073 97.0492 299.352 96.5141 301.171C96.3632 301.663 96.2191 302.197 96.0819 302.766C95.9858 303.145 95.8967 303.546 95.8143 303.946C95.7663 304.15 95.7251 304.354 95.684 304.564L95.5605 305.204V305.302C95.4781 305.738 95.3958 306.187 95.3204 306.644C95.2449 307.1 95.1557 307.627 95.0802 308.126C95.0254 308.449 94.9773 308.772 94.9362 309.096C94.8401 309.721 94.7578 310.353 94.6755 310.978C94.6274 311.344 94.5794 311.681 94.5382 312.067L94.3736 313.472C94.7235 314.624 95.1145 315.762 95.5193 316.879C95.7779 317.491 95.9289 318.145 95.9653 318.811C104.384 321.274 113.308 321.274 121.726 318.811C121.723 318.788 121.723 318.764 121.726 318.741C121.6 318.11 121.544 317.467 121.562 316.823C121.7 315.021 121.929 313.227 122.248 311.449C122.349 310.572 122.393 309.69 122.378 308.808V308.491C122.358 308.224 122.351 307.972 122.344 307.719ZM122.344 307.719C122.344 307.438 122.344 307.157 122.296 306.876C122.248 306.595 122.255 306.349 122.22 306.082C122.186 305.815 122.159 305.548 122.124 305.281C122.09 305.014 122.042 304.747 121.994 304.48C121.946 304.213 121.898 303.946 121.843 303.679C121.843 303.588 121.809 303.504 121.788 303.412C121.713 303.061 121.63 302.71 121.541 302.352C121.452 301.993 121.397 301.783 121.315 301.502C121.315 301.375 121.246 301.249 121.205 301.129C121.164 301.01 121.088 300.722 121.027 300.518L120.903 300.125C120.848 299.949 120.793 299.773 120.732 299.598C120.629 299.282 120.519 298.973 120.409 298.657C120.299 298.34 120.183 298.031 120.066 297.722C119.833 297.09 119.579 296.465 119.325 295.84C118.331 293.409 117.212 291.013 116.183 288.639C115.63 287.394 115.14 286.121 114.715 284.824L114.585 285.014C114.376 285.337 114.19 285.675 114.029 286.026C114.029 291.554 108.623 298.319 108.623 298.319L103.182 290.206L98.4213 297.701C97.7353 298.073 97.0492 299.352 96.5141 301.171C96.3632 301.663 96.2191 302.197 96.0819 302.766C95.9858 303.145 95.8967 303.546 95.8143 303.946C95.7663 304.15 95.7251 304.354 95.684 304.564L95.5605 305.204V305.302C95.4781 305.738 95.3958 306.187 95.3204 306.644C95.2449 307.1 95.1557 307.627 95.0802 308.126C95.0254 308.449 94.9773 308.772 94.9362 309.096C94.8401 309.721 94.7578 310.353 94.6755 310.978C94.6274 311.344 94.5794 311.681 94.5382 312.067L94.3736 313.472C94.7235 314.624 95.1145 315.762 95.5193 316.879C95.7779 317.491 95.9289 318.145 95.9653 318.811C104.384 321.274 113.308 321.274 121.726 318.811C121.723 318.788 121.723 318.764 121.726 318.741C121.6 318.11 121.544 317.467 121.562 316.823C121.7 315.021 121.929 313.227 122.248 311.449C122.349 310.572 122.393 309.69 122.378 308.808V308.491C122.358 308.224 122.351 307.972 122.344 307.719ZM122.344 307.719C122.344 307.438 122.344 307.157 122.296 306.876C122.248 306.595 122.255 306.349 122.22 306.082C122.186 305.815 122.159 305.548 122.124 305.281C122.09 305.014 122.042 304.747 121.994 304.48C121.946 304.213 121.898 303.946 121.843 303.679C121.843 303.588 121.809 303.504 121.788 303.412C121.713 303.061 121.63 302.71 121.541 302.352C121.452 301.993 121.397 301.783 121.315 301.502C121.315 301.375 121.246 301.249 121.205 301.129C121.164 301.01 121.088 300.722 121.027 300.518L120.903 300.125C120.848 299.949 120.793 299.773 120.732 299.598C120.629 299.282 120.519 298.973 120.409 298.657C120.299 298.34 120.183 298.031 120.066 297.722C119.833 297.09 119.579 296.465 119.325 295.84C118.331 293.409 117.212 291.013 116.183 288.639C115.63 287.394 115.14 286.121 114.715 284.824L114.585 285.014C114.376 285.337 114.19 285.675 114.029 286.026C114.029 291.554 108.623 298.319 108.623 298.319L103.182 290.206L98.4213 297.701C97.7353 298.073 97.0492 299.352 96.5141 301.171C96.3632 301.663 96.2191 302.197 96.0819 302.766C95.9858 303.145 95.8967 303.546 95.8143 303.946C95.7663 304.15 95.7251 304.354 95.684 304.564L95.5605 305.204V305.302C95.4781 305.738 95.3958 306.187 95.3204 306.644C95.2449 307.1 95.1557 307.627 95.0802 308.126C95.0254 308.449 94.9773 308.772 94.9362 309.096C94.8401 309.721 94.7578 310.353 94.6755 310.978C94.6274 311.344 94.5794 311.681 94.5382 312.067L94.3736 313.472C94.7235 314.624 95.1145 315.762 95.5193 316.879C95.7779 317.491 95.9289 318.145 95.9653 318.811C104.384 321.274 113.308 321.274 121.726 318.811C121.723 318.788 121.723 318.764 121.726 318.741C121.6 318.11 121.544 317.467 121.562 316.823C121.7 315.021 121.929 313.227 122.248 311.449C122.349 310.572 122.393 309.69 122.378 308.808V308.491C122.358 308.224 122.351 307.972 122.344 307.719ZM122.344 307.719C122.344 307.438 122.344 307.157 122.296 306.876C122.248 306.595 122.255 306.349 122.22 306.082C122.186 305.815 122.159 305.548 122.124 305.281C122.09 305.014 122.042 304.747 121.994 304.48C121.946 304.213 121.898 303.946 121.843 303.679C121.843 303.588 121.809 303.504 121.788 303.412C121.713 303.061 121.63 302.71 121.541 302.352C121.452 301.993 121.397 301.783 121.315 301.502C121.315 301.375 121.246 301.249 121.205 301.129C121.164 301.01 121.088 300.722 121.027 300.518L120.903 300.125C120.848 299.949 120.793 299.773 120.732 299.598C120.629 299.282 120.519 298.973 120.409 298.657C120.299 298.34 120.183 298.031 120.066 297.722C119.833 297.09 119.579 296.465 119.325 295.84C118.331 293.409 117.212 291.013 116.183 288.639C115.63 287.394 115.14 286.121 114.715 284.824L114.585 285.014C114.376 285.337 114.19 285.675 114.029 286.026C114.029 291.554 108.623 298.319 108.623 298.319L103.182 290.206L98.4213 297.701C97.7353 298.073 97.0492 299.352 96.5141 301.171C96.3632 301.663 96.2191 302.197 96.0819 302.766C95.9858 303.145 95.8967 303.546 95.8143 303.946C95.7663 304.15 95.7251 304.354 95.684 304.564L95.5605 305.204V305.302C95.4781 305.738 95.3958 306.187 95.3204 306.644C95.2449 307.1 95.1557 307.627 95.0802 308.126C95.0254 308.449 94.9773 308.772 94.9362 309.096C94.8401 309.721 94.7578 310.353 94.6755 310.978C94.6274 311.344 94.5794 311.681 94.5382 312.067L94.3736 313.472C94.7235 314.624 95.1145 315.762 95.5193 316.879C95.7779 317.491 95.9289 318.145 95.9653 318.811C104.384 321.274 113.308 321.274 121.726 318.811C121.723 318.788 121.723 318.764 121.726 318.741C121.6 318.11 121.544 317.467 121.562 316.823C121.7 315.021 121.929 313.227 122.248 311.449C122.349 310.572 122.393 309.69 122.378 308.808V308.491C122.358 308.224 122.351 307.972 122.344 307.719ZM122.344 307.719C122.344 307.438 122.344 307.157 122.296 306.876C122.248 306.595 122.255 306.349 122.22 306.082C122.186 305.815 122.159 305.548 122.124 305.281C122.09 305.014 122.042 304.747 121.994 304.48C121.946 304.213 121.898 303.946 121.843 303.679C121.843 303.588 121.809 303.504 121.788 303.412C121.713 303.061 121.63 302.71 121.541 302.352C121.452 301.993 121.397 301.783 121.315 301.502C121.315 301.375 121.246 301.249 121.205 301.129C121.164 301.01 121.088 300.722 121.027 300.518L120.903 300.125C120.848 299.949 120.793 299.773 120.732 299.598C120.629 299.282 120.519 298.973 120.409 298.657C120.299 298.34 120.183 298.031 120.066 297.722C119.833 297.09 119.579 296.465 119.325 295.84C118.331 293.409 117.212 291.013 116.183 288.639C115.63 287.394 115.14 286.121 114.715 284.824L114.585 285.014C114.376 285.337 114.19 285.675 114.029 286.026C114.029 291.554 108.623 298.319 108.623 298.319L103.182 290.206L98.4213 297.701C97.7353 298.073 97.0492 299.352 96.5141 301.171C96.3632 301.663 96.2191 302.197 96.0819 302.766C95.9858 303.145 95.8967 303.546 95.8143 303.946C95.7663 304.15 95.7251 304.354 95.684 304.564L95.5605 305.204V305.302C95.4781 305.738 95.3958 306.187 95.3204 306.644C95.2449 307.1 95.1557 307.627 95.0802 308.126C95.0254 308.449 94.9773 308.772 94.9362 309.096C94.8401 309.721 94.7578 310.353 94.6755 310.978C94.6274 311.344 94.5794 311.681 94.5382 312.067L94.3736 313.472C94.7235 314.624 95.1145 315.762 95.5193 316.879C95.7779 317.491 95.9289 318.145 95.9653 318.811C104.384 321.274 113.308 321.274 121.726 318.811C121.723 318.788 121.723 318.764 121.726 318.741C121.6 318.11 121.544 317.467 121.562 316.823C121.7 315.021 121.929 313.227 122.248 311.449C122.349 310.572 122.393 309.69 122.378 308.808V308.491C122.358 308.224 122.351 307.972 122.344 307.719ZM122.344 307.719C122.344 307.438 122.344 307.157 122.296 306.876C122.248 306.595 122.255 306.349 122.22 306.082C122.186 305.815 122.159 305.548 122.124 305.281C122.09 305.014 122.042 304.747 121.994 304.48C121.946 304.213 121.898 303.946 121.843 303.679C121.843 303.588 121.809 303.504 121.788 303.412C121.713 303.061 121.63 302.71 121.541 302.352C121.452 301.993 121.397 301.783 121.315 301.502C121.315 301.375 121.246 301.249 121.205 301.129C121.164 301.01 121.088 300.722 121.027 300.518L120.903 300.125C120.848 299.949 120.793 299.773 120.732 299.598C120.629 299.282 120.519 298.973 120.409 298.657C120.299 298.34 120.183 298.031 120.066 297.722C119.833 297.09 119.579 296.465 119.325 295.84C118.331 293.409 117.212 291.013 116.183 288.639C115.63 287.394 115.14 286.121 114.715 284.824L114.585 285.014C114.376 285.337 114.19 285.675 114.029 286.026C114.029 291.554 108.623 298.319 108.623 298.319L103.182 290.206L98.4213 297.701C97.7353 298.073 97.0492 299.352 96.5141 301.171C96.3632 301.663 96.2191 302.197 96.0819 302.766C95.9858 303.145 95.8967 303.546 95.8143 303.946C95.7663 304.15 95.7251 304.354 95.684 304.564L95.5605 305.204V305.302C95.4781 305.738 95.3958 306.187 95.3204 306.644C95.2449 307.1 95.1557 307.627 95.0802 308.126C95.0254 308.449 94.9773 308.772 94.9362 309.096C94.8401 309.721 94.7578 310.353 94.6755 310.978C94.6274 311.344 94.5794 311.681 94.5382 312.067L94.3736 313.472C94.7235 314.624 95.1145 315.762 95.5193 316.879C95.7779 317.491 95.9289 318.145 95.9653 318.811C104.384 321.274 113.308 321.274 121.726 318.811C121.723 318.788 121.723 318.764 121.726 318.741C121.6 318.11 121.544 317.467 121.562 316.823C121.7 315.021 121.929 313.227 122.248 311.449C122.349 310.572 122.393 309.69 122.378 308.808V308.491C122.358 308.224 122.351 307.972 122.344 307.719Z" fill="white"/>
<path opacity="0.1" d="M103.278 289.735L102.819 289.672C102.125 289.575 101.437 289.435 100.761 289.25L100.507 289.18C98.8328 288.695 97.001 287.824 96.5893 286.293C96.4668 285.8 96.4811 285.282 96.6305 284.796C96.8608 283.961 97.1735 283.151 97.5636 282.38V282.338C97.6151 282.229 97.6724 282.124 97.7351 282.022C98.3012 280.889 99.1572 279.934 100.212 279.261L99.3885 279.394L92.4181 280.553L81.6127 282.338C81.6127 282.338 79.6918 281.944 77.0779 289.32C77.0779 289.412 77.0161 289.496 76.9887 289.594C76.3575 291.4 75.692 293.655 75.006 296.472C74.5326 298.425 74.1004 300.343 73.7025 302.204C73.5858 302.766 73.4692 303.321 73.3594 303.869C74.5964 305.362 75.9279 306.77 77.3454 308.084L77.5718 308.302C80.3482 310.876 83.4163 313.1 86.7101 314.926L86.8405 314.996C88.9126 316.141 91.0688 317.118 93.2894 317.919L93.8726 318.13C93.9961 316.83 94.1333 315.39 94.2979 313.915C94.2979 313.767 94.2979 313.62 94.3528 313.472L94.5175 312.067C94.5586 311.709 94.6067 311.365 94.6547 310.978C94.737 310.353 94.8193 309.721 94.9154 309.096C94.9565 308.772 95.0046 308.449 95.0594 308.126C95.1349 307.627 95.2172 307.129 95.2996 306.644C95.3819 306.159 95.4573 305.738 95.5397 305.302V305.204L95.6632 304.564C95.7043 304.354 95.7455 304.15 95.7935 303.946C95.8759 303.546 95.965 303.145 96.0611 302.766C96.1983 302.197 96.3424 301.663 96.4933 301.171C97.0422 299.352 97.6802 298.073 98.4005 297.701L103.162 290.206L103.361 289.889L103.45 289.749L103.278 289.735Z" fill="black"/>
<path opacity="0.1" d="M94.6132 239.978C93.9272 240.947 93.982 242.282 93.6733 243.49C92.9392 246.237 90.0303 247.958 89.3649 250.726C88.9738 252.341 89.4266 254.055 89.1591 255.699C88.672 258.727 85.9689 260.778 84.4596 263.427C83.6944 264.791 83.2408 266.315 83.1327 267.884C83.0245 269.454 83.2647 271.028 83.8352 272.489C84.1883 273.226 84.4798 273.992 84.7065 274.779C84.8797 275.952 84.8072 277.149 84.4939 278.291C83.9793 280.792 83.4511 283.546 84.6311 285.801C85.6259 287.705 87.6909 288.822 89.7697 289.173C91.8687 289.416 93.9922 289.316 96.0608 288.878C98.3316 288.52 100.658 288.105 102.634 286.911L95.2032 268.548C94.4554 266.693 93.687 264.775 93.6939 262.766C93.7544 261.284 94.0678 259.824 94.6201 258.453C96.0585 254.48 98.1465 250.786 100.795 247.529C101.872 248.808 101.79 250.754 102.688 252.173C103.483 253.222 104.54 254.031 105.748 254.512C109.269 256.271 112.886 257.819 116.581 259.148C116.813 259.178 117.034 259.266 117.225 259.404C117.415 259.543 117.57 259.727 117.674 259.941C117.779 260.155 117.83 260.392 117.824 260.631C117.817 260.87 117.753 261.104 117.638 261.312L114.838 273.142C114.221 275.748 113.679 278.762 115.264 280.869C116.849 282.977 120.423 283.974 120.444 286.693C120.414 287.123 120.414 287.555 120.444 287.986C120.629 289.257 122.104 289.868 123.359 289.932C125.42 289.973 127.429 289.264 129.026 287.929C130.623 286.595 131.705 284.723 132.079 282.647C132.765 277.996 129.76 273.711 128.505 269.18C126.392 261.558 129.191 252.615 125.04 245.921C121.678 240.49 115.552 239.015 109.734 238.341C105.652 237.849 97.4878 236.093 94.6132 239.978Z" fill="black"/>
<path opacity="0.5" d="M94.6132 239.275C93.9272 240.244 93.982 241.579 93.6733 242.788C92.9392 245.534 90.0303 247.255 89.3649 250.023C88.9738 251.639 89.4266 253.353 89.1591 254.997C88.672 258.025 85.9689 260.076 84.4596 262.724C83.6944 264.089 83.2408 265.613 83.1327 267.182C83.0245 268.751 83.2647 270.325 83.8352 271.786C84.1883 272.523 84.4798 273.289 84.7065 274.076C84.8797 275.249 84.8072 276.447 84.4939 277.589C83.9793 280.09 83.4511 282.843 84.6311 285.098C85.6259 287.002 87.6909 288.119 89.7697 288.47C91.8687 288.713 93.9922 288.614 96.0608 288.175C98.3316 287.817 100.658 287.403 102.634 286.208L95.2032 267.845C94.4554 265.991 93.687 264.073 93.6939 262.064C93.7544 260.582 94.0678 259.122 94.6201 257.751C96.0585 253.777 98.1465 250.083 100.795 246.827C101.872 248.105 101.79 250.051 102.688 251.47C103.483 252.519 104.54 253.328 105.748 253.81C109.269 255.568 112.886 257.116 116.581 258.446C116.813 258.476 117.034 258.564 117.225 258.702C117.415 258.84 117.57 259.025 117.674 259.239C117.779 259.453 117.83 259.69 117.824 259.929C117.817 260.168 117.753 260.402 117.638 260.61L114.838 272.44C114.221 275.046 113.679 278.06 115.264 280.167C116.849 282.274 120.423 283.272 120.444 285.991C120.414 286.421 120.414 286.853 120.444 287.283C120.629 288.555 122.104 289.166 123.359 289.229C125.42 289.271 127.429 288.561 129.026 287.227C130.623 285.892 131.705 284.02 132.079 281.944C132.765 277.294 129.76 273.009 128.505 268.478C126.392 260.856 129.191 251.913 125.04 245.218C121.678 239.788 115.552 238.313 109.734 237.638C105.652 237.147 97.4878 235.39 94.6132 239.275Z" fill="#493545"/>
</g>
<g opacity="0.5">
<path opacity="0.5" d="M90.3935 427.437C90.4552 429.79 88.891 431.799 87.6492 433.759C86.4075 435.719 85.4882 438.396 86.7642 440.356C87.1827 441.002 87.8139 441.501 88.1912 442.175C89.5153 444.529 87.3131 447.233 86.5104 449.818C85.5842 452.804 86.6613 456.141 88.6097 458.564C90.5581 460.988 93.2475 462.625 95.9643 464.065C101.676 467.182 107.807 469.417 114.158 470.696C117.479 471.322 121.019 471.603 124.134 470.24C126.295 469.225 128.06 467.495 129.146 465.33C130.232 463.164 130.576 460.687 130.123 458.297C129.334 454.602 126.693 451.631 125.32 448.139C125 447.454 124.845 446.7 124.868 445.941C124.984 444.613 125.979 443.573 126.754 442.498C128.698 439.572 129.492 436.002 128.977 432.502C128.435 429.002 127.127 425.673 125.149 422.765C124.442 421.56 123.509 420.509 122.405 419.674C120.909 418.642 119.057 418.347 117.273 418.087C109.822 417.019 102.104 415.853 94.5921 415.46C92.2184 415.333 90.4758 415.811 89.3026 418.087C87.512 421.48 90.3043 424.03 90.3935 427.437Z" fill="#444176"/>
<path opacity="0.5" d="M128.765 451.329L114.626 471.919L100.822 470.689C100.822 470.689 100.37 475.607 94.8191 457.785C91.7181 447.816 98.023 451.28 99.2648 448.519C100.507 445.758 102.695 443.32 102.88 441.283C103.32 436.914 102.023 434.427 102.023 434.427L117.027 432.586C116.35 434.656 116.264 436.882 116.78 439C118.66 446.994 128.765 451.329 128.765 451.329Z" fill="#C77485"/>
<path opacity="0.5" d="M107.498 433.773C117.349 433.773 125.335 427.326 125.335 419.372C125.335 411.419 117.349 404.971 107.498 404.971C97.6463 404.971 89.6602 411.419 89.6602 419.372C89.6602 427.326 97.6463 433.773 107.498 433.773Z" fill="#444176"/>
<path opacity="0.1" d="M116.773 438.993C114.816 440.51 112.526 441.513 110.102 441.912C107.679 442.311 105.197 442.095 102.874 441.283C103.313 436.914 102.016 434.427 102.016 434.427L117.02 432.586C116.344 434.654 116.259 436.877 116.773 438.993Z" fill="black"/>
<path opacity="0.5" d="M107.724 441.494C116.011 441.494 122.728 434.615 122.728 426.13C122.728 417.645 116.011 410.767 107.724 410.767C99.4372 410.767 92.7197 417.645 92.7197 426.13C92.7197 434.615 99.4372 441.494 107.724 441.494Z" fill="#C77485"/>
<path opacity="0.1" d="M127.284 453.661L126.934 452.256L126.632 451.02L126.186 449.193L126.104 448.856L126.035 448.575C126.035 448.575 126.392 447.472 124.038 447.83L123.599 447.908C123.229 447.985 122.797 448.09 122.303 448.231L121.857 448.371L121.267 448.561C119.399 449.184 117.695 450.236 116.286 451.638C115.654 452.257 115.094 452.95 114.619 453.703C114.571 453.773 114.537 453.837 114.495 453.893C114.333 454.154 114.189 454.426 114.063 454.708C114.063 460.243 108.657 467.001 108.657 467.001L103.381 459.197L103.278 459.042L102.023 457.173L101.577 456.569L101.426 456.359L98.6815 452.586L97.9955 451.645L97.7691 451.329L97.4329 450.872L96.6439 449.797L93.5567 451.645L89.4403 454.104L87.0391 470.085V470.528L87.1146 471.848L87.6154 480.531V480.651L86.7373 484.247L86.8676 484.318C88.9397 485.462 91.0959 486.439 93.3166 487.24L93.8997 487.451C94.5858 487.683 95.2307 487.893 95.903 488.097C95.9279 488.201 95.9463 488.307 95.9579 488.413C95.9579 488.315 95.9579 488.209 95.9579 488.111C104.377 490.574 113.301 490.574 121.72 488.111L121.877 488.062C122.268 487.95 122.666 487.83 123.051 487.697L123.675 487.493C125.368 486.913 127.026 486.233 128.642 485.456L129.218 472.881L129.63 463.812V463.292L127.284 453.661Z" fill="black"/>
<path opacity="0.5" d="M122.343 477.019C122.343 476.738 122.343 476.457 122.295 476.176C122.247 475.895 122.254 475.649 122.219 475.382C122.185 475.115 122.158 474.848 122.123 474.581C122.089 474.314 122.041 474.047 121.993 473.78C121.945 473.513 121.897 473.246 121.842 472.979C121.842 472.888 121.808 472.804 121.787 472.713C121.712 472.361 121.629 472.01 121.54 471.652C121.451 471.293 121.396 471.083 121.314 470.802C121.314 470.675 121.245 470.549 121.204 470.429C121.163 470.31 121.087 470.022 121.026 469.818L120.902 469.425C120.847 469.249 120.792 469.074 120.731 468.898C120.628 468.582 120.518 468.273 120.408 467.957C120.298 467.641 120.182 467.331 120.065 467.022C119.832 466.39 119.578 465.765 119.324 465.14C118.33 462.709 117.211 460.314 116.182 457.939C115.629 456.694 115.139 455.421 114.714 454.125L114.584 454.314C114.375 454.637 114.189 454.976 114.028 455.326C114.028 460.854 108.622 467.619 108.622 467.619L103.181 459.506L98.4203 467.001C97.7343 467.374 97.0482 468.652 96.5131 470.472C96.3622 470.963 96.2181 471.497 96.0809 472.066C95.9848 472.446 95.8957 472.846 95.8133 473.246C95.7653 473.45 95.7241 473.654 95.683 473.865L95.5595 474.504V474.602C95.4771 475.038 95.3948 475.487 95.3194 475.944C95.2439 476.401 95.1547 476.927 95.0792 477.426C95.0244 477.749 94.9763 478.073 94.9352 478.396C94.8391 479.021 94.7568 479.653 94.6745 480.278C94.6264 480.644 94.5784 480.981 94.5372 481.367L94.3726 482.772C94.7225 483.924 95.1135 485.062 95.5183 486.179C95.7769 486.791 95.9279 487.445 95.9643 488.111C104.383 490.574 113.307 490.574 121.725 488.111C121.722 488.088 121.722 488.064 121.725 488.041C121.599 487.41 121.543 486.767 121.561 486.123C121.699 484.321 121.928 482.527 122.247 480.749C122.348 479.873 122.392 478.99 122.377 478.108V477.791C122.357 477.525 122.35 477.272 122.343 477.019ZM122.343 477.019C122.343 476.738 122.343 476.457 122.295 476.176C122.247 475.895 122.254 475.649 122.219 475.382C122.185 475.115 122.158 474.848 122.123 474.581C122.089 474.314 122.041 474.047 121.993 473.78C121.945 473.513 121.897 473.246 121.842 472.979C121.842 472.888 121.808 472.804 121.787 472.713C121.712 472.361 121.629 472.01 121.54 471.652C121.451 471.293 121.396 471.083 121.314 470.802C121.314 470.675 121.245 470.549 121.204 470.429C121.163 470.31 121.087 470.022 121.026 469.818L120.902 469.425C120.847 469.249 120.792 469.074 120.731 468.898C120.628 468.582 120.518 468.273 120.408 467.957C120.298 467.641 120.182 467.331 120.065 467.022C119.832 466.39 119.578 465.765 119.324 465.14C118.33 462.709 117.211 460.314 116.182 457.939C115.629 456.694 115.139 455.421 114.714 454.125L114.584 454.314C114.375 454.637 114.189 454.976 114.028 455.326C114.028 460.854 108.622 467.619 108.622 467.619L103.181 459.506L98.4203 467.001C97.7343 467.374 97.0482 468.652 96.5131 470.472C96.3622 470.963 96.2181 471.497 96.0809 472.066C95.9848 472.446 95.8957 472.846 95.8133 473.246C95.7653 473.45 95.7241 473.654 95.683 473.865L95.5595 474.504V474.602C95.4771 475.038 95.3948 475.487 95.3194 475.944C95.2439 476.401 95.1547 476.927 95.0792 477.426C95.0244 477.749 94.9763 478.073 94.9352 478.396C94.8391 479.021 94.7568 479.653 94.6745 480.278C94.6264 480.644 94.5784 480.981 94.5372 481.367L94.3726 482.772C94.7225 483.924 95.1135 485.062 95.5183 486.179C95.7769 486.791 95.9279 487.445 95.9643 488.111C104.383 490.574 113.307 490.574 121.725 488.111C121.722 488.088 121.722 488.064 121.725 488.041C121.599 487.41 121.543 486.767 121.561 486.123C121.699 484.321 121.928 482.527 122.247 480.749C122.348 479.873 122.392 478.99 122.377 478.108V477.791C122.357 477.525 122.35 477.272 122.343 477.019ZM122.343 477.019C122.343 476.738 122.343 476.457 122.295 476.176C122.247 475.895 122.254 475.649 122.219 475.382C122.185 475.115 122.158 474.848 122.123 474.581C122.089 474.314 122.041 474.047 121.993 473.78C121.945 473.513 121.897 473.246 121.842 472.979C121.842 472.888 121.808 472.804 121.787 472.713C121.712 472.361 121.629 472.01 121.54 471.652C121.451 471.293 121.396 471.083 121.314 470.802C121.314 470.675 121.245 470.549 121.204 470.429C121.163 470.31 121.087 470.022 121.026 469.818L120.902 469.425C120.847 469.249 120.792 469.074 120.731 468.898C120.628 468.582 120.518 468.273 120.408 467.957C120.298 467.641 120.182 467.331 120.065 467.022C119.832 466.39 119.578 465.765 119.324 465.14C118.33 462.709 117.211 460.314 116.182 457.939C115.629 456.694 115.139 455.421 114.714 454.125L114.584 454.314C114.375 454.637 114.189 454.976 114.028 455.326C114.028 460.854 108.622 467.619 108.622 467.619L103.181 459.506L98.4203 467.001C97.7343 467.374 97.0482 468.652 96.5131 470.472C96.3622 470.963 96.2181 471.497 96.0809 472.066C95.9848 472.446 95.8957 472.846 95.8133 473.246C95.7653 473.45 95.7241 473.654 95.683 473.865L95.5595 474.504V474.602C95.4771 475.038 95.3948 475.487 95.3194 475.944C95.2439 476.401 95.1547 476.927 95.0792 477.426C95.0244 477.749 94.9763 478.073 94.9352 478.396C94.8391 479.021 94.7568 479.653 94.6745 480.278C94.6264 480.644 94.5784 480.981 94.5372 481.367L94.3726 482.772C94.7225 483.924 95.1135 485.062 95.5183 486.179C95.7769 486.791 95.9279 487.445 95.9643 488.111C104.383 490.574 113.307 490.574 121.725 488.111C121.722 488.088 121.722 488.064 121.725 488.041C121.599 487.41 121.543 486.767 121.561 486.123C121.699 484.321 121.928 482.527 122.247 480.749C122.348 479.873 122.392 478.99 122.377 478.108V477.791C122.357 477.525 122.35 477.272 122.343 477.019ZM129.615 463.833L127.166 453.823L126.747 452.108L126.631 451.638L126.034 449.193C126.035 449.172 126.035 449.151 126.034 449.13C126.048 449.022 126.031 448.912 125.986 448.814C125.897 448.631 125.67 448.441 125.142 448.392C124.941 448.378 124.739 448.378 124.538 448.392C123.942 448.453 123.352 448.566 122.775 448.73C122.494 448.807 122.192 448.891 121.87 448.996L121.28 449.186H121.225C119.644 449.717 118.178 450.552 116.903 451.645C116.06 452.364 115.321 453.201 114.707 454.132L114.577 454.321C114.368 454.645 114.182 454.983 114.021 455.333C114.021 460.862 108.615 467.626 108.615 467.626L103.175 459.513L102.866 459.056L102.811 458.979L102.022 457.792L101.425 456.977L101.267 456.766L98.4546 452.923L97.5628 451.68V451.638L97.254 451.209L96.664 450.408L94.6059 451.638L89.4604 454.708L87.0867 470.521V470.689L87.1553 471.841L87.663 480.644V481.142L86.8877 484.311C88.9598 485.455 91.116 486.432 93.3366 487.233L93.9198 487.444C94.6059 487.676 95.2507 487.886 95.9231 488.09C95.948 488.194 95.9663 488.3 95.978 488.406C95.978 488.308 95.978 488.202 95.978 488.104C104.396 490.567 113.321 490.567 121.739 488.104L121.897 488.055C122.288 487.942 122.686 487.823 123.07 487.69L123.694 487.486C125.387 486.906 127.046 486.226 128.662 485.449L129.231 472.888L129.643 463.917L129.615 463.833ZM95.8751 488.09C95.9 488.194 95.9183 488.3 95.9299 488.406C95.9299 488.308 95.9299 488.202 95.9299 488.104L95.8751 488.09ZM122.343 477.019C122.343 476.738 122.343 476.457 122.295 476.176C122.247 475.895 122.254 475.649 122.219 475.382C122.185 475.115 122.158 474.848 122.123 474.581C122.089 474.314 122.041 474.047 121.993 473.78C121.945 473.513 121.897 473.246 121.842 472.979C121.842 472.888 121.808 472.804 121.787 472.713C121.712 472.361 121.629 472.01 121.54 471.652C121.451 471.293 121.396 471.083 121.314 470.802C121.314 470.675 121.245 470.549 121.204 470.429C121.163 470.31 121.087 470.022 121.026 469.818L120.902 469.425C120.847 469.249 120.792 469.074 120.731 468.898C120.628 468.582 120.518 468.273 120.408 467.957C120.298 467.641 120.182 467.331 120.065 467.022C119.832 466.39 119.578 465.765 119.324 465.14C118.33 462.709 117.211 460.314 116.182 457.939C115.629 456.694 115.139 455.421 114.714 454.125L114.584 454.314C114.375 454.637 114.189 454.976 114.028 455.326C114.028 460.854 108.622 467.619 108.622 467.619L103.181 459.506L98.4203 467.001C97.7343 467.374 97.0482 468.652 96.5131 470.472C96.3622 470.963 96.2181 471.497 96.0809 472.066C95.9848 472.446 95.8957 472.846 95.8133 473.246C95.7653 473.45 95.7241 473.654 95.683 473.865L95.5595 474.504V474.602C95.4771 475.038 95.3948 475.487 95.3194 475.944C95.2439 476.401 95.1547 476.927 95.0792 477.426C95.0244 477.749 94.9763 478.073 94.9352 478.396C94.8391 479.021 94.7568 479.653 94.6745 480.278C94.6264 480.644 94.5784 480.981 94.5372 481.367L94.3726 482.772C94.7225 483.924 95.1135 485.062 95.5183 486.179C95.7769 486.791 95.9279 487.445 95.9643 488.111C104.383 490.574 113.307 490.574 121.725 488.111C121.722 488.088 121.722 488.064 121.725 488.041C121.599 487.41 121.543 486.767 121.561 486.123C121.699 484.321 121.928 482.527 122.247 480.749C122.348 479.873 122.392 478.99 122.377 478.108V477.791C122.357 477.525 122.35 477.272 122.343 477.019ZM122.343 477.019C122.343 476.738 122.343 476.457 122.295 476.176C122.247 475.895 122.254 475.649 122.219 475.382C122.185 475.115 122.158 474.848 122.123 474.581C122.089 474.314 122.041 474.047 121.993 473.78C121.945 473.513 121.897 473.246 121.842 472.979C121.842 472.888 121.808 472.804 121.787 472.713C121.712 472.361 121.629 472.01 121.54 471.652C121.451 471.293 121.396 471.083 121.314 470.802C121.314 470.675 121.245 470.549 121.204 470.429C121.163 470.31 121.087 470.022 121.026 469.818L120.902 469.425C120.847 469.249 120.792 469.074 120.731 468.898C120.628 468.582 120.518 468.273 120.408 467.957C120.298 467.641 120.182 467.331 120.065 467.022C119.832 466.39 119.578 465.765 119.324 465.14C118.33 462.709 117.211 460.314 116.182 457.939C115.629 456.694 115.139 455.421 114.714 454.125L114.584 454.314C114.375 454.637 114.189 454.976 114.028 455.326C114.028 460.854 108.622 467.619 108.622 467.619L103.181 459.506L98.4203 467.001C97.7343 467.374 97.0482 468.652 96.5131 470.472C96.3622 470.963 96.2181 471.497 96.0809 472.066C95.9848 472.446 95.8957 472.846 95.8133 473.246C95.7653 473.45 95.7241 473.654 95.683 473.865L95.5595 474.504V474.602C95.4771 475.038 95.3948 475.487 95.3194 475.944C95.2439 476.401 95.1547 476.927 95.0792 477.426C95.0244 477.749 94.9763 478.073 94.9352 478.396C94.8391 479.021 94.7568 479.653 94.6745 480.278C94.6264 480.644 94.5784 480.981 94.5372 481.367L94.3726 482.772C94.7225 483.924 95.1135 485.062 95.5183 486.179C95.7769 486.791 95.9279 487.445 95.9643 488.111C104.383 490.574 113.307 490.574 121.725 488.111C121.722 488.088 121.722 488.064 121.725 488.041C121.599 487.41 121.543 486.767 121.561 486.123C121.699 484.321 121.928 482.527 122.247 480.749C122.348 479.873 122.392 478.99 122.377 478.108V477.791C122.357 477.525 122.35 477.272 122.343 477.019ZM122.343 477.019C122.343 476.738 122.343 476.457 122.295 476.176C122.247 475.895 122.254 475.649 122.219 475.382C122.185 475.115 122.158 474.848 122.123 474.581C122.089 474.314 122.041 474.047 121.993 473.78C121.945 473.513 121.897 473.246 121.842 472.979C121.842 472.888 121.808 472.804 121.787 472.713C121.712 472.361 121.629 472.01 121.54 471.652C121.451 471.293 121.396 471.083 121.314 470.802C121.314 470.675 121.245 470.549 121.204 470.429C121.163 470.31 121.087 470.022 121.026 469.818L120.902 469.425C120.847 469.249 120.792 469.074 120.731 468.898C120.628 468.582 120.518 468.273 120.408 467.957C120.298 467.641 120.182 467.331 120.065 467.022C119.832 466.39 119.578 465.765 119.324 465.14C118.33 462.709 117.211 460.314 116.182 457.939C115.629 456.694 115.139 455.421 114.714 454.125L114.584 454.314C114.375 454.637 114.189 454.976 114.028 455.326C114.028 460.854 108.622 467.619 108.622 467.619L103.181 459.506L98.4203 467.001C97.7343 467.374 97.0482 468.652 96.5131 470.472C96.3622 470.963 96.2181 471.497 96.0809 472.066C95.9848 472.446 95.8957 472.846 95.8133 473.246C95.7653 473.45 95.7241 473.654 95.683 473.865L95.5595 474.504V474.602C95.4771 475.038 95.3948 475.487 95.3194 475.944C95.2439 476.401 95.1547 476.927 95.0792 477.426C95.0244 477.749 94.9763 478.073 94.9352 478.396C94.8391 479.021 94.7568 479.653 94.6745 480.278C94.6264 480.644 94.5784 480.981 94.5372 481.367L94.3726 482.772C94.7225 483.924 95.1135 485.062 95.5183 486.179C95.7769 486.791 95.9279 487.445 95.9643 488.111C104.383 490.574 113.307 490.574 121.725 488.111C121.722 488.088 121.722 488.064 121.725 488.041C121.599 487.41 121.543 486.767 121.561 486.123C121.699 484.321 121.928 482.527 122.247 480.749C122.348 479.873 122.392 478.99 122.377 478.108V477.791C122.357 477.525 122.35 477.272 122.343 477.019ZM122.343 477.019C122.343 476.738 122.343 476.457 122.295 476.176C122.247 475.895 122.254 475.649 122.219 475.382C122.185 475.115 122.158 474.848 122.123 474.581C122.089 474.314 122.041 474.047 121.993 473.78C121.945 473.513 121.897 473.246 121.842 472.979C121.842 472.888 121.808 472.804 121.787 472.713C121.712 472.361 121.629 472.01 121.54 471.652C121.451 471.293 121.396 471.083 121.314 470.802C121.314 470.675 121.245 470.549 121.204 470.429C121.163 470.31 121.087 470.022 121.026 469.818L120.902 469.425C120.847 469.249 120.792 469.074 120.731 468.898C120.628 468.582 120.518 468.273 120.408 467.957C120.298 467.641 120.182 467.331 120.065 467.022C119.832 466.39 119.578 465.765 119.324 465.14C118.33 462.709 117.211 460.314 116.182 457.939C115.629 456.694 115.139 455.421 114.714 454.125L114.584 454.314C114.375 454.637 114.189 454.976 114.028 455.326C114.028 460.854 108.622 467.619 108.622 467.619L103.181 459.506L98.4203 467.001C97.7343 467.374 97.0482 468.652 96.5131 470.472C96.3622 470.963 96.2181 471.497 96.0809 472.066C95.9848 472.446 95.8957 472.846 95.8133 473.246C95.7653 473.45 95.7241 473.654 95.683 473.865L95.5595 474.504V474.602C95.4771 475.038 95.3948 475.487 95.3194 475.944C95.2439 476.401 95.1547 476.927 95.0792 477.426C95.0244 477.749 94.9763 478.073 94.9352 478.396C94.8391 479.021 94.7568 479.653 94.6745 480.278C94.6264 480.644 94.5784 480.981 94.5372 481.367L94.3726 482.772C94.7225 483.924 95.1135 485.062 95.5183 486.179C95.7769 486.791 95.9279 487.445 95.9643 488.111C104.383 490.574 113.307 490.574 121.725 488.111C121.722 488.088 121.722 488.064 121.725 488.041C121.599 487.41 121.543 486.767 121.561 486.123C121.699 484.321 121.928 482.527 122.247 480.749C122.348 479.873 122.392 478.99 122.377 478.108V477.791C122.357 477.525 122.35 477.272 122.343 477.019ZM122.343 477.019C122.343 476.738 122.343 476.457 122.295 476.176C122.247 475.895 122.254 475.649 122.219 475.382C122.185 475.115 122.158 474.848 122.123 474.581C122.089 474.314 122.041 474.047 121.993 473.78C121.945 473.513 121.897 473.246 121.842 472.979C121.842 472.888 121.808 472.804 121.787 472.713C121.712 472.361 121.629 472.01 121.54 471.652C121.451 471.293 121.396 471.083 121.314 470.802C121.314 470.675 121.245 470.549 121.204 470.429C121.163 470.31 121.087 470.022 121.026 469.818L120.902 469.425C120.847 469.249 120.792 469.074 120.731 468.898C120.628 468.582 120.518 468.273 120.408 467.957C120.298 467.641 120.182 467.331 120.065 467.022C119.832 466.39 119.578 465.765 119.324 465.14C118.33 462.709 117.211 460.314 116.182 457.939C115.629 456.694 115.139 455.421 114.714 454.125L114.584 454.314C114.375 454.637 114.189 454.976 114.028 455.326C114.028 460.854 108.622 467.619 108.622 467.619L103.181 459.506L98.4203 467.001C97.7343 467.374 97.0482 468.652 96.5131 470.472C96.3622 470.963 96.2181 471.497 96.0809 472.066C95.9848 472.446 95.8957 472.846 95.8133 473.246C95.7653 473.45 95.7241 473.654 95.683 473.865L95.5595 474.504V474.602C95.4771 475.038 95.3948 475.487 95.3194 475.944C95.2439 476.401 95.1547 476.927 95.0792 477.426C95.0244 477.749 94.9763 478.073 94.9352 478.396C94.8391 479.021 94.7568 479.653 94.6745 480.278C94.6264 480.644 94.5784 480.981 94.5372 481.367L94.3726 482.772C94.7225 483.924 95.1135 485.062 95.5183 486.179C95.7769 486.791 95.9279 487.445 95.9643 488.111C104.383 490.574 113.307 490.574 121.725 488.111C121.722 488.088 121.722 488.064 121.725 488.041C121.599 487.41 121.543 486.767 121.561 486.123C121.699 484.321 121.928 482.527 122.247 480.749C122.348 479.873 122.392 478.99 122.377 478.108V477.791C122.357 477.525 122.35 477.272 122.343 477.019ZM122.343 477.019C122.343 476.738 122.343 476.457 122.295 476.176C122.247 475.895 122.254 475.649 122.219 475.382C122.185 475.115 122.158 474.848 122.123 474.581C122.089 474.314 122.041 474.047 121.993 473.78C121.945 473.513 121.897 473.246 121.842 472.979C121.842 472.888 121.808 472.804 121.787 472.713C121.712 472.361 121.629 472.01 121.54 471.652C121.451 471.293 121.396 471.083 121.314 470.802C121.314 470.675 121.245 470.549 121.204 470.429C121.163 470.31 121.087 470.022 121.026 469.818L120.902 469.425C120.847 469.249 120.792 469.074 120.731 468.898C120.628 468.582 120.518 468.273 120.408 467.957C120.298 467.641 120.182 467.331 120.065 467.022C119.832 466.39 119.578 465.765 119.324 465.14C118.33 462.709 117.211 460.314 116.182 457.939C115.629 456.694 115.139 455.421 114.714 454.125L114.584 454.314C114.375 454.637 114.189 454.976 114.028 455.326C114.028 460.854 108.622 467.619 108.622 467.619L103.181 459.506L98.4203 467.001C97.7343 467.374 97.0482 468.652 96.5131 470.472C96.3622 470.963 96.2181 471.497 96.0809 472.066C95.9848 472.446 95.8957 472.846 95.8133 473.246C95.7653 473.45 95.7241 473.654 95.683 473.865L95.5595 474.504V474.602C95.4771 475.038 95.3948 475.487 95.3194 475.944C95.2439 476.401 95.1547 476.927 95.0792 477.426C95.0244 477.749 94.9763 478.073 94.9352 478.396C94.8391 479.021 94.7568 479.653 94.6745 480.278C94.6264 480.644 94.5784 480.981 94.5372 481.367L94.3726 482.772C94.7225 483.924 95.1135 485.062 95.5183 486.179C95.7769 486.791 95.9279 487.445 95.9643 488.111C104.383 490.574 113.307 490.574 121.725 488.111C121.722 488.088 121.722 488.064 121.725 488.041C121.599 487.41 121.543 486.767 121.561 486.123C121.699 484.321 121.928 482.527 122.247 480.749C122.348 479.873 122.392 478.99 122.377 478.108V477.791C122.357 477.525 122.35 477.272 122.343 477.019ZM122.343 477.019C122.343 476.738 122.343 476.457 122.295 476.176C122.247 475.895 122.254 475.649 122.219 475.382C122.185 475.115 122.158 474.848 122.123 474.581C122.089 474.314 122.041 474.047 121.993 473.78C121.945 473.513 121.897 473.246 121.842 472.979C121.842 472.888 121.808 472.804 121.787 472.713C121.712 472.361 121.629 472.01 121.54 471.652C121.451 471.293 121.396 471.083 121.314 470.802C121.314 470.675 121.245 470.549 121.204 470.429C121.163 470.31 121.087 470.022 121.026 469.818L120.902 469.425C120.847 469.249 120.792 469.074 120.731 468.898C120.628 468.582 120.518 468.273 120.408 467.957C120.298 467.641 120.182 467.331 120.065 467.022C119.832 466.39 119.578 465.765 119.324 465.14C118.33 462.709 117.211 460.314 116.182 457.939C115.629 456.694 115.139 455.421 114.714 454.125L114.584 454.314C114.375 454.637 114.189 454.976 114.028 455.326C114.028 460.854 108.622 467.619 108.622 467.619L103.181 459.506L98.4203 467.001C97.7343 467.374 97.0482 468.652 96.5131 470.472C96.3622 470.963 96.2181 471.497 96.0809 472.066C95.9848 472.446 95.8957 472.846 95.8133 473.246C95.7653 473.45 95.7241 473.654 95.683 473.865L95.5595 474.504V474.602C95.4771 475.038 95.3948 475.487 95.3194 475.944C95.2439 476.401 95.1547 476.927 95.0792 477.426C95.0244 477.749 94.9763 478.073 94.9352 478.396C94.8391 479.021 94.7568 479.653 94.6745 480.278C94.6264 480.644 94.5784 480.981 94.5372 481.367L94.3726 482.772C94.7225 483.924 95.1135 485.062 95.5183 486.179C95.7769 486.791 95.9279 487.445 95.9643 488.111C104.383 490.574 113.307 490.574 121.725 488.111C121.722 488.088 121.722 488.064 121.725 488.041C121.599 487.41 121.543 486.767 121.561 486.123C121.699 484.321 121.928 482.527 122.247 480.749C122.348 479.873 122.392 478.99 122.377 478.108V477.791C122.357 477.525 122.35 477.272 122.343 477.019ZM122.343 477.019C122.343 476.738 122.343 476.457 122.295 476.176C122.247 475.895 122.254 475.649 122.219 475.382C122.185 475.115 122.158 474.848 122.123 474.581C122.089 474.314 122.041 474.047 121.993 473.78C121.945 473.513 121.897 473.246 121.842 472.979C121.842 472.888 121.808 472.804 121.787 472.713C121.712 472.361 121.629 472.01 121.54 471.652C121.451 471.293 121.396 471.083 121.314 470.802C121.314 470.675 121.245 470.549 121.204 470.429C121.163 470.31 121.087 470.022 121.026 469.818L120.902 469.425C120.847 469.249 120.792 469.074 120.731 468.898C120.628 468.582 120.518 468.273 120.408 467.957C120.298 467.641 120.182 467.331 120.065 467.022C119.832 466.39 119.578 465.765 119.324 465.14C118.33 462.709 117.211 460.314 116.182 457.939C115.629 456.694 115.139 455.421 114.714 454.125L114.584 454.314C114.375 454.637 114.189 454.976 114.028 455.326C114.028 460.854 108.622 467.619 108.622 467.619L103.181 459.506L98.4203 467.001C97.7343 467.374 97.0482 468.652 96.5131 470.472C96.3622 470.963 96.2181 471.497 96.0809 472.066C95.9848 472.446 95.8957 472.846 95.8133 473.246C95.7653 473.45 95.7241 473.654 95.683 473.865L95.5595 474.504V474.602C95.4771 475.038 95.3948 475.487 95.3194 475.944C95.2439 476.401 95.1547 476.927 95.0792 477.426C95.0244 477.749 94.9763 478.073 94.9352 478.396C94.8391 479.021 94.7568 479.653 94.6745 480.278C94.6264 480.644 94.5784 480.981 94.5372 481.367L94.3726 482.772C94.7225 483.924 95.1135 485.062 95.5183 486.179C95.7769 486.791 95.9279 487.445 95.9643 488.111C104.383 490.574 113.307 490.574 121.725 488.111C121.722 488.088 121.722 488.064 121.725 488.041C121.599 487.41 121.543 486.767 121.561 486.123C121.699 484.321 121.928 482.527 122.247 480.749C122.348 479.873 122.392 478.99 122.377 478.108V477.791C122.357 477.525 122.35 477.272 122.343 477.019Z" fill="#444176"/>
<path opacity="0.1" d="M103.282 459.035L102.822 458.972C102.128 458.876 101.441 458.735 100.764 458.55L100.51 458.48C98.8356 457.995 97.0038 457.124 96.5921 455.593C96.4696 455.1 96.4839 454.582 96.6333 454.097C96.8636 453.261 97.1763 452.451 97.5664 451.68V451.638C97.6179 451.529 97.6752 451.424 97.7379 451.322C98.304 450.189 99.16 449.234 100.215 448.561L99.3913 448.694L92.4209 449.854L81.6155 451.638C81.6155 451.638 79.6946 451.244 77.0807 458.621C77.0807 458.712 77.019 458.796 76.9915 458.895C76.3603 460.7 75.6949 462.955 75.0088 465.772C74.5354 467.725 74.1032 469.643 73.7053 471.504C73.5887 472.066 73.472 472.621 73.3623 473.169C74.5992 474.662 75.9308 476.07 77.3483 477.384L77.5746 477.602C80.3511 480.176 83.4191 482.4 86.7129 484.226L86.8433 484.297C88.9154 485.441 91.0716 486.418 93.2922 487.219L93.8754 487.43C93.9989 486.13 94.1361 484.69 94.3007 483.215C94.3007 483.067 94.3007 482.92 94.3556 482.772L94.5203 481.367C94.5614 481.009 94.6095 480.665 94.6575 480.278C94.7398 479.653 94.8221 479.021 94.9182 478.396C94.9593 478.073 95.0074 477.749 95.0622 477.426C95.1377 476.927 95.22 476.429 95.3024 475.944C95.3847 475.459 95.4601 475.038 95.5425 474.602V474.504L95.666 473.865C95.7071 473.654 95.7483 473.45 95.7963 473.246C95.8787 472.846 95.9678 472.446 96.0639 472.066C96.2011 471.497 96.3452 470.963 96.4961 470.472C97.045 468.652 97.683 467.374 98.4033 467.001L103.165 459.506L103.364 459.19L103.453 459.049L103.282 459.035Z" fill="black"/>
<path opacity="0.1" d="M104.423 421.634C106.564 421.262 108.718 420.461 110.845 420.932C112.628 421.311 114.117 422.527 115.75 423.37C117.326 424.181 119.051 424.648 120.813 424.739C121.456 424.826 122.109 424.695 122.672 424.367C123.523 423.763 123.646 422.527 123.502 421.473C123.091 418.48 121.266 415.909 119.386 413.577C118.636 412.581 117.769 411.682 116.806 410.9C114.343 409.039 111.085 408.723 108.032 408.863C104.547 409.025 101.007 409.713 97.9812 411.505C95.923 412.713 91.203 416.52 92.8426 419.274C94.5646 422.154 101.727 422.105 104.423 421.634Z" fill="black"/>
<path opacity="0.5" d="M104.423 420.932C106.564 420.56 108.718 419.759 110.845 420.229C112.628 420.609 114.117 421.824 115.75 422.667C117.326 423.479 119.051 423.945 120.813 424.037C121.456 424.123 122.109 423.993 122.672 423.665C123.523 423.06 123.646 421.824 123.502 420.77C123.091 417.778 121.266 415.207 119.386 412.874C118.636 411.878 117.769 410.979 116.806 410.198C114.343 408.336 111.085 408.02 108.032 408.161C104.547 408.322 101.007 409.011 97.9812 410.802C95.923 412.01 91.203 415.818 92.8426 418.572C94.5646 421.452 101.727 421.403 104.423 420.932Z" fill="#444176"/>
</g>
<path d="M292.822 386.531H292.925C293.076 391.238 293.728 395.495 294.983 396.675C297.975 399.485 310.378 393.865 309.528 390.465C309.356 389.762 309.068 388.61 308.705 387.156C312.052 386.728 314.913 385.751 316.052 383.742L318.206 390.542L318.357 391.027H318.398H318.522C319.942 404.81 323.16 433.429 325.732 437.265C329.163 442.344 333.108 464.353 333.108 464.353L340.483 509.502C340.483 509.502 343.323 535.494 345.024 538.304C345.519 538.84 346.177 539.19 346.89 539.294C345.896 542.343 344.469 545.905 342.774 547.893C339.344 551.841 334.83 559.744 330.857 559.182C326.885 558.62 325.753 567.085 333.128 568.209C337.21 568.834 343.721 568.075 348.722 567.275C348.722 569.537 350.259 572.136 354.122 572.726C361.497 573.857 376.816 570.471 376.816 570.471C376.816 570.471 389.851 564.851 390.435 560.875C390.846 557.995 388.85 546.432 387.738 540.369C389.797 536.99 387.601 507.83 387.601 507.83L383.629 451.961C383.629 451.961 385.9 420.925 383.629 415.277C382.209 411.764 381.68 395.607 381.481 384.051L384.226 384.234C384.382 384.041 384.524 383.837 384.651 383.623L385.337 383.672C385.337 383.672 388.767 379.724 385.907 373.514C383.8 368.899 384.198 348.063 384.534 337.687L384.939 332.769C385.09 332.62 385.205 332.437 385.275 332.236C390.597 331.5 395.769 329.896 400.595 327.487C402.051 326.867 403.407 326.023 404.615 324.986C407.456 322.176 405.747 305.232 400.074 279.837C394.4 254.442 389.296 256.697 389.296 256.697C389.296 256.697 375.677 255.566 369.434 247.101C363.191 238.636 358.999 238.748 358.999 238.748C358.842 237.638 358.732 236.592 358.656 235.615C358.656 235.25 358.601 234.913 358.581 234.547C360.703 232.526 362.322 230.014 363.301 227.22C364.577 226.518 366.148 226.286 367.369 225.401C367.681 225.169 367.964 224.9 368.213 224.6C369.437 223.444 370.214 221.876 370.402 220.181C370.596 218.331 370.511 216.462 370.148 214.639C369.716 211.941 369.078 209.18 367.541 207.059C366.004 204.937 363.706 203.659 361.49 202.472C355.489 199.245 349.472 196.051 343.44 192.89C342.261 192.152 340.946 191.674 339.577 191.485C337.162 191.344 334.994 193.037 333.046 194.646C332.268 195.272 331.524 195.941 330.816 196.648C330.214 197.194 329.665 197.799 329.176 198.453C326.899 201.579 325.931 207.466 326.933 211.372C327.249 212.609 327.928 212.967 328.765 212.953C327.523 215.481 326.877 218.272 326.878 221.102C326.892 224.2 327.666 227.245 329.13 229.957C330.594 232.669 332.7 234.96 335.255 236.62C335.255 237.013 335.255 237.399 335.289 237.772C335.317 239.213 335.271 240.655 335.152 242.092C335.152 242.092 320.059 250.445 318.364 254.393C316.67 258.341 310.42 261.165 310.42 261.165C310.42 261.165 298.503 267.375 298.503 289.384L292.26 320.42L291.128 379.675C291.128 379.675 291.91 378.972 293.186 377.975C293.145 378.368 293.11 378.775 293.076 379.19C292.906 381.455 292.849 383.727 292.905 385.997L292.822 386.531ZM369.043 539.892C368.81 540.798 368.467 541.999 368.035 543.404C367.843 542.238 367.651 541.086 367.458 539.99C367.952 539.941 368.481 539.913 369.043 539.892Z" fill="url(#paint2_linear)"/>
<path d="M348.434 532.614C348.434 532.614 346.245 542.688 342.946 546.6C339.646 550.513 335.323 558.353 331.509 557.791C327.695 557.229 326.59 565.624 333.698 566.741C340.805 567.858 355.521 564.507 355.521 564.507C355.521 564.507 368.09 558.887 368.632 554.995C369.174 551.103 365.352 530.935 365.352 530.935L348.434 532.614Z" fill="#53526B"/>
<path opacity="0.05" d="M348.434 532.614C348.434 532.614 346.245 542.688 342.946 546.6C339.646 550.513 335.323 558.353 331.509 557.791C327.695 557.229 326.59 565.624 333.698 566.741C340.805 567.858 355.521 564.507 355.521 564.507C355.521 564.507 368.09 558.887 368.632 554.995C369.174 551.103 365.352 530.935 365.352 530.935L348.434 532.614Z" fill="black"/>
<path d="M368.652 537.089C368.652 537.089 366.464 547.162 363.164 551.075C359.864 554.988 355.521 562.828 351.713 562.266C347.906 561.704 346.794 570.099 353.902 571.216C361.009 572.333 375.76 568.975 375.76 568.975C375.76 568.975 388.328 563.355 388.87 559.463C389.412 555.571 385.591 535.403 385.591 535.403L368.652 537.089Z" fill="#53526B"/>
<path d="M318.927 383.798C318.927 383.798 323.297 431.912 326.576 436.949C329.856 441.986 333.677 463.805 333.677 463.805L340.778 508.561C340.778 508.561 343.522 534.3 345.148 537.096C346.774 539.892 367.054 538.69 367.054 538.69L354.444 390.507L318.927 383.798Z" fill="#5F5D7E"/>
<path opacity="0.05" d="M318.927 383.798C318.927 383.798 323.297 431.912 326.576 436.949C329.856 441.986 333.677 463.805 333.677 463.805L340.778 508.561C340.778 508.561 343.522 534.3 345.148 537.096C346.774 539.892 367.054 538.69 367.054 538.69L354.444 390.507L318.927 383.798Z" fill="black"/>
<path d="M310.186 360.848L311.613 365.491L319.332 390.577L319.482 391.055H319.524C320.56 391.294 342.431 396.443 347.151 398.024C347.406 398.104 347.656 398.201 347.899 398.312C350.087 399.429 352.818 439.71 352.818 439.71C352.818 439.71 354.458 477.756 355.562 480.552C356.667 483.348 361.051 540.966 363.761 539.295C366.47 537.623 386.16 539.295 386.16 539.295C388.349 537.054 386.16 506.847 386.16 506.847L382.277 451.469C382.277 451.469 384.466 420.7 382.277 415.101C380.089 409.502 380.089 372.025 380.089 372.025L335.365 364.866L331.043 364.164L310.186 360.848Z" fill="#5F5D7E"/>
<path opacity="0.02" d="M311.613 365.498L319.332 390.584L319.517 391.076C320.553 391.315 342.424 396.464 347.144 398.045H347.618L335.399 364.873L335.049 363.918L331.077 364.178L311.613 365.498Z" fill="black"/>
<path opacity="0.1" d="M362.642 248.962C362.642 248.962 342.424 271.344 329.856 252.875L317.836 261.27L320.024 274.14L312.917 371.484C312.917 371.484 331.495 370.922 344.606 375.397C348.257 376.723 352.203 376.953 355.978 376.061C359.753 375.169 363.201 373.191 365.915 370.36L363.754 284.768L368.673 258.474L362.642 248.962Z" fill="black"/>
<path d="M362.642 247.283C362.642 247.283 342.424 269.665 329.856 251.196L317.836 259.591L320.024 272.461L312.917 369.805C312.917 369.805 331.495 369.243 344.606 373.718C348.257 375.044 352.203 375.274 355.978 374.382C359.753 373.49 363.201 371.512 365.915 368.681L363.754 283.089L368.673 256.795L362.642 247.283Z" fill="#53526B"/>
<path d="M322.283 346.953V350.479H321.185V348.133H317.171V350.479H316.067V346.96L322.283 346.953Z" fill="#E82127"/>
<path d="M321.3 345.815H317.061C316.783 345.747 316.529 345.602 316.325 345.396C316.122 345.191 315.978 344.932 315.908 344.649H322.446C322.376 344.932 322.231 345.19 322.028 345.396C321.825 345.601 321.571 345.746 321.294 345.815" fill="#E82127"/>
<path d="M359.637 344.691C359.565 344.971 359.421 345.227 359.219 345.43C359.018 345.634 358.766 345.779 358.492 345.85H356.708L356.619 345.885V350.493H355.521V345.885L355.418 345.85H353.634C353.361 345.777 353.11 345.632 352.909 345.428C352.708 345.224 352.563 344.97 352.489 344.691H359.637Z" fill="#E82127"/>
<path d="M320.566 363.096C320.566 363.096 320.566 377.645 317.287 383.798C314.008 389.952 294.887 386.608 294.887 386.608L298.709 365.906L320.566 363.096Z" fill="#D6DBE6"/>
<path d="M296.966 396.675C299.848 399.485 311.792 393.865 310.968 390.521C310.392 388.154 308.375 379.682 307.229 374.877L306.434 371.498C306.434 371.498 299.436 369.257 296.966 371.498C296.067 372.313 295.436 375.523 295.141 379.401C294.633 386.138 295.148 394.891 296.966 396.675Z" fill="#FDC2CC"/>
<path d="M323.276 257.35L342.397 272.454C342.397 272.454 370.806 270.775 363.706 256.788C360.614 250.637 358.748 243.917 358.217 237.02C357.986 234.476 357.986 231.915 358.217 229.37C358.217 229.37 331.989 204.783 335.269 232.728C335.527 234.873 335.678 237.03 335.721 239.191C336.112 260.167 323.276 257.35 323.276 257.35Z" fill="#FDC2CC"/>
<path opacity="0.1" d="M335.323 232.735C335.582 234.88 335.733 237.037 335.776 239.198C338.719 241.194 342.173 242.255 345.704 242.247C350.595 242.247 354.197 237.371 357.449 234.133C357.085 229.489 358.265 229.377 358.265 229.377C358.265 229.377 332.044 204.762 335.323 232.735Z" fill="black"/>
<path d="M345.704 241.13C355.661 241.13 363.733 232.864 363.733 222.668C363.733 212.472 355.661 204.207 345.704 204.207C335.746 204.207 327.674 212.472 327.674 222.668C327.674 232.864 335.746 241.13 345.704 241.13Z" fill="#FDC2CC"/>
<path opacity="0.1" d="M358.54 240.287C358.54 240.287 361.545 240.568 367.554 248.955C373.564 257.343 386.675 258.467 386.675 258.467C386.675 258.467 391.594 256.226 397.055 281.403C402.516 306.581 404.156 323.363 401.425 326.159C398.695 328.955 387.766 332.882 382.277 332.882C382.277 332.882 380.638 368.126 383.368 374.28C386.099 380.433 382.819 384.353 382.819 384.353L358.807 382.674C358.807 382.674 350.609 372.046 348.969 353.584C347.329 335.123 341.868 282.527 344.599 276.374C347.329 270.22 359.349 254.554 358.807 252.875C358.265 251.196 358.54 240.287 358.54 240.287Z" fill="black"/>
<path d="M358.601 240.118C358.601 240.118 362.642 240.006 368.652 248.4C374.662 256.795 387.766 257.912 387.766 257.912C387.766 257.912 392.685 255.671 398.146 280.848C403.607 306.026 405.246 322.808 402.516 325.604C399.785 328.4 388.856 332.32 383.395 332.32C383.395 332.32 381.756 367.564 384.486 373.718C387.217 379.871 383.937 383.791 383.937 383.791L359.925 382.112C359.925 382.112 351.727 371.484 350.087 353.022C348.448 334.561 342.973 281.972 345.704 275.847C348.434 269.721 360.454 254.027 359.912 252.348C359.37 250.669 358.601 240.118 358.601 240.118Z" fill="#D6DBE6"/>
<path opacity="0.1" d="M295.148 379.394C297.762 377.35 302.695 374.167 307.236 374.87L306.441 371.491C306.441 371.491 299.443 369.25 296.973 371.491C296.06 372.306 295.436 375.509 295.148 379.394Z" fill="black"/>
<path opacity="0.1" d="M335.625 243.645C335.625 243.645 321.692 252.875 320.052 256.795C318.412 260.715 312.402 263.511 312.402 263.511C312.402 263.511 300.931 269.665 300.931 291.484L294.922 322.253L322.24 361.417C322.24 361.417 325.52 322.253 327.159 312.741C328.799 303.23 330.981 285.344 330.981 285.344C330.981 285.344 339.179 274.716 338.081 271.92C336.984 269.124 335.625 243.645 335.625 243.645Z" fill="black"/>
<path d="M335.625 243.476C335.625 243.476 321.095 251.758 319.462 255.671C317.829 259.584 311.812 262.387 311.812 262.387C311.812 262.387 300.341 268.541 300.341 290.36L294.332 321.129L293.241 379.871C293.241 379.871 303.079 370.36 310.179 374.835C317.28 379.309 321.65 360.286 321.65 360.286C321.65 360.286 324.93 321.122 326.569 311.61C328.209 302.099 330.391 284.213 330.391 284.213C330.391 284.213 338.589 273.585 337.491 270.789C336.394 267.993 335.625 243.476 335.625 243.476Z" fill="#D6DBE6"/>
<path opacity="0.1" d="M329.876 200.21C330.801 199.005 331.871 197.924 333.06 196.992C334.939 195.391 337.018 193.719 339.351 193.859C340.67 194.039 341.938 194.503 343.069 195.222C348.878 198.355 354.67 201.521 360.447 204.72C362.581 205.9 364.783 207.15 366.272 209.272C367.76 211.393 368.364 214.119 368.783 216.788C369.133 218.597 369.216 220.448 369.029 222.282C368.859 224.079 368.007 225.737 366.656 226.897C365.098 228.056 362.965 228.063 361.661 229.581C360.907 230.459 360.577 231.688 360.042 232.756C359.507 233.824 358.581 234.863 357.524 234.674C356.468 234.484 355.83 233.339 355.679 232.18C355.612 231.005 355.678 229.826 355.878 228.667C356.084 226.56 355.823 224.326 354.629 222.759C353.806 221.692 352.626 221.045 351.83 219.95C349.923 217.308 350.794 212.925 348.702 210.445C348.094 209.797 347.329 209.325 346.486 209.078C345.642 208.831 344.75 208.818 343.899 209.04C342.205 209.405 340.654 210.346 339.097 211.147C336.993 212.234 334.789 213.105 332.517 213.747C330.61 214.28 328.401 215.559 327.749 212.96C326.755 209.145 327.681 203.308 329.876 200.21Z" fill="black"/>
<path d="M330.425 199.655C331.35 198.45 332.42 197.369 333.608 196.437C335.488 194.836 337.567 193.164 339.899 193.304C341.219 193.484 342.487 193.949 343.618 194.667C349.422 197.8 354.245 194.836 360.996 204.165C362.436 206.16 365.332 206.595 366.82 208.717C368.309 210.838 368.913 213.564 369.331 216.233C369.682 218.042 369.765 219.893 369.578 221.727C369.408 223.524 368.556 225.182 367.205 226.342C365.647 227.501 363.514 227.508 362.21 229.026C361.455 229.904 361.126 231.133 360.591 232.201C360.056 233.269 359.13 234.308 358.073 234.119C357.017 233.929 356.379 232.784 356.228 231.625C356.16 230.45 356.227 229.271 356.427 228.113C356.632 226.005 356.372 223.771 355.178 222.205C354.355 221.137 353.175 220.49 352.379 219.395C350.472 216.753 351.343 212.37 349.25 209.89C348.643 209.242 347.878 208.77 347.035 208.523C346.191 208.277 345.298 208.263 344.448 208.485C342.753 208.85 341.203 209.792 339.646 210.592C337.542 211.679 335.338 212.55 333.066 213.192C331.159 213.726 328.95 215.004 328.298 212.405C327.297 208.59 328.23 202.746 330.425 199.655Z" fill="#865A61"/>
<path opacity="0.1" d="M379.67 285.042C379.67 285.042 386.956 304.066 381.488 311.898L369.469 309.089C369.469 309.089 380.397 312.446 378.758 305.731C377.118 299.015 379.67 285.042 379.67 285.042Z" fill="black"/>
<path opacity="0.1" d="M383.649 332.046C383.649 332.046 367.801 333.163 363.431 329.805C369.186 334.303 375.982 337.196 383.155 338.2L383.649 332.046Z" fill="black"/>
<path opacity="0.1" d="M315.38 296.219C315.38 296.219 307.181 321.958 307.73 325.871C308.279 329.784 309.369 372.868 309.369 372.868L311.01 372.306L310.461 325.309L315.38 296.219Z" fill="black"/>
<path d="M385.577 327.676L198.284 173.129C197.194 172.013 195.899 171.128 194.475 170.526C193.05 169.923 191.524 169.614 189.982 169.616H182.024C197.927 148.748 205.459 122.454 203.082 96.096C200.705 69.7379 188.599 45.3007 169.233 27.7668C149.867 10.233 124.699 0.923125 98.8593 1.73538C73.0205 2.54763 48.4572 13.4209 30.1779 32.1381C11.8985 50.8553 1.27959 76.0069 0.486338 102.465C-0.306914 128.922 8.78522 154.694 25.9089 174.524C43.0325 194.354 66.8981 206.749 92.6396 209.183C118.382 211.617 144.06 203.905 164.44 187.621V195.763C164.438 197.341 164.74 198.904 165.329 200.363C165.917 201.821 166.781 203.147 167.871 204.263L355.164 358.811C356.249 359.93 357.538 360.819 358.96 361.425C360.381 362.031 361.905 362.343 363.445 362.343C364.985 362.343 366.509 362.031 367.93 361.425C369.352 360.819 370.642 359.93 371.726 358.811L385.529 344.691C387.732 342.437 388.973 339.382 388.982 336.194C388.991 333.005 387.767 329.943 385.577 327.676ZM101.913 169.616C89.546 169.616 77.457 165.861 67.1744 158.826C56.8919 151.791 48.8776 141.792 44.1451 130.092C39.4125 118.393 38.1743 105.52 40.5869 93.1005C42.9995 80.6809 48.9547 69.2728 57.6992 60.3187C66.4438 51.3647 77.5851 45.2669 89.7142 42.7965C101.844 40.326 114.416 41.5939 125.841 46.4398C137.267 51.2857 147.032 59.492 153.903 70.0208C160.773 80.5497 164.44 92.9282 164.44 105.591C164.447 114.002 162.834 122.331 159.694 130.102C156.554 137.874 151.949 144.935 146.142 150.883C140.334 156.831 133.439 161.548 125.85 164.765C118.261 167.981 110.127 169.635 101.913 169.63V169.616Z" fill="url(#paint3_linear)"/>
<path d="M386.949 326.271L199.656 171.724C198.566 170.608 197.271 169.723 195.847 169.121C194.422 168.518 192.896 168.209 191.354 168.211H183.396C199.3 147.343 206.831 121.049 204.454 94.691C202.077 68.3329 189.971 43.8957 170.605 26.3619C151.239 8.82806 126.071 -0.481858 100.232 0.330395C74.3936 1.14265 49.8303 12.0159 31.5509 30.7331C13.2716 49.4503 2.65264 74.602 1.85939 101.06C1.06613 127.517 10.1583 153.289 27.2819 173.119C44.4056 192.949 68.2712 205.344 94.0126 207.778C119.754 210.212 145.432 202.5 165.813 186.216V194.358C165.81 195.936 166.112 197.499 166.701 198.958C167.289 200.416 168.153 201.742 169.243 202.858L356.536 357.406C357.621 358.525 358.911 359.414 360.332 360.02C361.753 360.626 363.277 360.938 364.817 360.938C366.357 360.938 367.881 360.626 369.302 360.02C370.724 359.414 372.014 358.525 373.098 357.406L386.901 343.286C389.104 341.032 390.345 337.977 390.354 334.789C390.363 331.6 389.139 328.538 386.949 326.271ZM103.285 168.211C90.919 168.211 78.83 164.456 68.5475 157.421C58.2649 150.386 50.2507 140.387 45.5181 128.687C40.7856 116.988 39.5473 104.115 41.96 91.6955C44.3726 79.2759 50.3277 67.8678 59.0723 58.9137C67.8169 49.9597 78.9582 43.8619 91.0873 41.3915C103.216 38.9211 115.788 40.189 127.213 45.0349C138.639 49.8808 148.404 58.087 155.275 68.6158C162.145 79.1447 165.813 91.5233 165.813 104.186C165.819 112.597 164.206 120.926 161.066 128.697C157.926 136.469 153.321 143.53 147.514 149.478C141.706 155.426 134.811 160.143 127.222 163.36C119.633 166.576 111.499 168.23 103.285 168.225V168.211Z" fill="#6D6D6D"/>
<path d="M373.022 312.179C373.022 312.179 345.683 280.076 349.525 302.106C352.269 317.771 362.635 326.166 367.555 327.845C372.474 329.524 373.022 312.179 373.022 312.179Z" fill="#FDC2CC"/>
<path d="M379.581 282.527C379.581 282.527 380.13 303.23 382.86 306.026C385.591 308.822 381.221 312.179 381.221 312.179L370.292 309.37C370.292 309.37 373.036 327.831 361.551 325.597C361.551 325.597 369.201 332.868 376.851 333.992C384.5 335.116 383.951 332.313 383.951 332.313L395.422 318.326L379.581 282.527Z" fill="#D6DBE6"/>
<path d="M382.607 332.615L393.693 330.121L392.211 324.888L385.351 322.078L376.432 326.293L382.607 332.615Z" fill="#D6DBE6"/>
<path d="M110.125 130.719L124.882 119.065C124.882 119.065 114.996 121.236 115.278 105.057C115.274 105.003 115.274 104.949 115.278 104.896C115.278 103.435 115.415 101.833 115.621 100.07C118.152 78.4821 97.9139 97.4774 97.9139 97.4774C98.0882 99.3887 98.0882 101.312 97.9139 103.224C97.9139 103.273 97.9139 103.329 97.9139 103.378C97.5137 108.698 96.0816 113.883 93.7015 118.629C88.2062 129.42 110.125 130.719 110.125 130.719Z" fill="#FDC2CC"/>
<path opacity="0.1" d="M99.7998 100.224C102.304 102.718 103.834 107.249 107.601 107.249C110.326 107.255 112.992 106.436 115.264 104.896C115.264 103.435 115.401 101.833 115.607 100.07C118.138 78.4821 97.8994 97.4774 97.8994 97.4774C97.8994 97.4774 100.068 96.7117 99.7998 100.224Z" fill="black"/>
<path d="M107.601 106.547C115.285 106.547 121.514 100.168 121.514 92.3001C121.514 84.4319 115.285 78.0536 107.601 78.0536C99.9167 78.0536 93.6875 84.4319 93.6875 92.3001C93.6875 100.168 99.9167 106.547 107.601 106.547Z" fill="#FDC2CC"/>
<path opacity="0.1" d="M120.944 74.0564C120.147 73.0238 119.224 72.0985 118.2 71.3026C116.595 69.9328 114.811 68.4927 112.815 68.6191C111.685 68.7731 110.6 69.1705 109.631 69.7853C104.657 72.4688 100.534 69.9328 94.7507 77.9131C93.5158 79.6201 91.0391 80.0205 89.7631 81.8119C88.487 83.6032 87.9724 85.9566 87.6088 88.2467C87.3083 89.7958 87.2366 91.3824 87.3962 92.9534C87.5486 94.4953 88.288 95.9136 89.4543 96.9014C90.7853 97.8919 92.6171 97.8989 93.7353 99.1985C94.2976 100.045 94.7583 100.958 95.1075 101.917C95.5602 102.83 96.3561 103.694 97.2617 103.561C98.1673 103.428 98.7092 102.423 98.8396 101.454C98.8962 100.45 98.8387 99.4436 98.6681 98.4539C98.4966 96.6766 98.7161 94.7377 99.7383 93.396C100.424 92.4757 101.453 91.9277 102.133 90.9934C103.765 88.7384 103.025 84.952 104.815 82.8586C105.339 82.308 105.996 81.9094 106.719 81.7033C107.442 81.4972 108.205 81.4911 108.931 81.6854C110.374 82.1069 111.757 82.716 113.048 83.4979C114.849 84.4288 116.736 85.1748 118.68 85.7248C120.313 86.1814 122.207 87.2773 122.762 85.0223C123.634 81.7065 122.817 76.7048 120.944 74.0564Z" fill="black"/>
<path d="M120.944 73.3539C120.147 72.3213 119.224 71.396 118.2 70.6001C116.595 69.2303 114.811 67.7902 112.815 67.9166C111.685 68.0706 110.6 68.468 109.631 69.0828C104.657 71.7663 100.534 69.2303 94.7507 77.2106C93.5158 78.9176 91.0391 79.318 89.7631 81.1094C88.487 82.9007 87.9724 85.2541 87.6088 87.5442C87.3083 89.0934 87.2366 90.6799 87.3962 92.2509C87.5486 93.7928 88.288 95.2111 89.4543 96.1989C90.7853 97.1894 92.6171 97.1964 93.7353 98.496C94.2976 99.3425 94.7583 100.255 95.1075 101.215C95.5602 102.128 96.3561 102.992 97.2617 102.858C98.1673 102.725 98.7092 101.72 98.8396 100.751C98.8962 99.7477 98.8387 98.7411 98.6681 97.7514C98.4966 95.9741 98.7161 94.0352 99.7383 92.6935C100.424 91.7732 101.453 91.2253 102.133 90.2909C103.765 88.0359 103.025 84.2495 104.815 82.1561C105.339 81.6055 105.996 81.2069 106.719 81.0008C107.442 80.7947 108.205 80.7886 108.931 80.9829C110.374 81.4044 111.757 82.0135 113.048 82.7954C114.849 83.7263 116.736 84.4723 118.68 85.0223C120.313 85.4789 122.207 86.5748 122.762 84.3198C123.634 81.004 122.817 76.0023 120.944 73.3539Z" fill="#865A61"/>
<path opacity="0.1" d="M93.6874 138.215L93.413 148.998C97.4 150.108 101.514 150.667 105.645 150.663C106.331 150.663 107.052 150.663 107.751 150.614C111.415 150.452 115.047 149.844 118.571 148.801H118.639C119.291 148.605 119.936 148.401 120.574 148.176H120.643L121.226 147.965C123.446 147.165 125.602 146.188 127.675 145.043L127.805 144.973C128.031 144.846 128.258 144.72 128.491 144.586L127.428 130.052L129.122 120.084L119.847 113.614C119.326 114.384 118.743 115.107 118.104 115.777C117.188 116.757 116.117 117.569 114.935 118.18C108.28 121.538 100.706 116.199 96.9393 112.897L96.0817 112.117C95.1075 111.211 94.5518 110.593 94.5518 110.593L89.9141 117.927L93.6874 138.215Z" fill="black"/>
<path d="M93.6874 138.917L93.413 149.701C97.4 150.81 101.514 151.37 105.645 151.365C106.331 151.365 107.052 151.365 107.751 151.316C111.415 151.155 115.047 150.546 118.571 149.504H118.639C119.291 149.307 119.936 149.103 120.574 148.879H120.643L121.226 148.668C123.446 147.867 125.602 146.89 127.675 145.746L127.805 145.675C128.031 145.549 128.258 145.422 128.491 145.289L127.428 130.754L129.122 120.786L119.847 114.316C119.326 115.086 118.743 115.81 118.104 116.48C117.188 117.459 116.117 118.271 114.935 118.882C108.28 122.24 100.706 116.901 96.9393 113.6L96.0817 112.82C95.1075 111.914 94.5518 111.295 94.5518 111.295L89.9141 118.629L93.6874 138.917Z" fill="#53526B"/>
<defs>
<linearGradient id="paint0_linear" x1="248.825" y1="538.199" x2="248.825" y2="7.60085" gradientUnits="userSpaceOnUse">
<stop stop-color="#808080" stop-opacity="0.25"/>
<stop offset="0.54" stop-color="#808080" stop-opacity="0.12"/>
<stop offset="1" stop-color="#808080" stop-opacity="0.1"/>
</linearGradient>
<linearGradient id="paint1_linear" x1="25556.8" y1="43499.3" x2="25556.8" y2="33210.6" gradientUnits="userSpaceOnUse">
<stop stop-color="#808080" stop-opacity="0.25"/>
<stop offset="0.54" stop-color="#808080" stop-opacity="0.12"/>
<stop offset="1" stop-color="#808080" stop-opacity="0.1"/>
</linearGradient>
<linearGradient id="paint2_linear" x1="-120067" y1="331317" x2="-120067" y2="124173" gradientUnits="userSpaceOnUse">
<stop stop-color="#808080" stop-opacity="0.25"/>
<stop offset="0.54" stop-color="#808080" stop-opacity="0.12"/>
<stop offset="1" stop-color="#808080" stop-opacity="0.1"/>
</linearGradient>
<linearGradient id="paint3_linear" x1="185922" y1="204909" x2="185922" y2="19682.7" gradientUnits="userSpaceOnUse">
<stop stop-color="#808080" stop-opacity="0.25"/>
<stop offset="0.54" stop-color="#808080" stop-opacity="0.12"/>
<stop offset="1" stop-color="#808080" stop-opacity="0.1"/>
</linearGradient>
</defs>
</svg>
