<svg width="669" height="711" viewBox="0 0 669 711" fill="none" xmlns="http://www.w3.org/2000/svg">
<path opacity="0.1" d="M550.654 679.414C550.654 696.679 427.578 710.672 275.763 710.672C125.372 710.672 3.18827 696.946 0.908203 679.901C30.0982 667.159 106.948 656.218 211.876 649.001C232.378 648.449 253.771 648.155 275.763 648.155C427.578 648.155 550.654 662.148 550.654 679.414Z" fill="black"/>
<path d="M500.088 0H44.0811V683.091H500.088V0Z" fill="#3F3D56"/>
<path d="M500.088 237.197H71.6621V446.813H500.088V237.197Z" fill="#2F2E41"/>
<path d="M668.333 241.794H244.504V441.297H668.333V241.794Z" fill="#3F3D56"/>
<path d="M365.172 271.214H270.477V305.23H365.172V271.214Z" fill="#0284B1"/>
<path d="M642.361 330.973H293.92V340.167H642.361V330.973Z" fill="#0284B1"/>
<path d="M642.361 354.876H293.92V364.07H642.361V354.876Z" fill="#0284B1"/>
<path d="M642.361 378.78H293.92V387.974H642.361V378.78Z" fill="#0284B1"/>
<path d="M642.361 402.684H293.92V411.877H642.361V402.684Z" fill="#0284B1"/>
<path d="M169.116 77.227H74.4209V111.244H169.116V77.227Z" fill="#F2F2F2"/>
<path d="M446.305 136.986H97.8643V146.18H446.305V136.986Z" fill="#F2F2F2"/>
<path d="M446.305 160.89H97.8643V170.083H446.305V160.89Z" fill="#F2F2F2"/>
<path d="M446.305 184.793H97.8643V193.987H446.305V184.793Z" fill="#F2F2F2"/>
<path d="M446.305 208.697H97.8643V217.89H446.305V208.697Z" fill="#F2F2F2"/>
<path d="M172.794 467.959H78.0986V501.975H172.794V467.959Z" fill="#F2F2F2"/>
<path d="M449.983 527.718H101.542V536.911H449.983V527.718Z" fill="#F2F2F2"/>
<path d="M449.983 551.621H101.542V560.815H449.983V551.621Z" fill="#F2F2F2"/>
<path d="M449.983 575.525H101.542V584.719H449.983V575.525Z" fill="#F2F2F2"/>
<path d="M449.983 599.429H101.542V608.622H449.983V599.429Z" fill="#F2F2F2"/>
</svg>
